<svg width="176" height="144" viewBox="0 0 176 144" fill="none" xmlns="http://www.w3.org/2000/svg">
<rect x="0.217822" y="0.73247" width="175.564" height="44.3168" rx="5.0099" fill="white"/>
<rect x="0.217822" y="0.73247" width="175.564" height="44.3168" rx="5.0099" stroke="#F7F7F7" stroke-width="0.435644"/>
<path d="M10.6256 9.28437C11.1225 9.28437 11.5514 9.46816 11.8441 9.77447H13.3144V8.93721H14.0699V12.5585H13.3144V11.7757H11.8441C11.5514 12.082 11.1191 12.2624 10.6256 12.259C9.6999 12.2658 8.99878 11.6396 8.99878 10.7751C8.99878 9.9038 9.6999 9.28437 10.6256 9.28437ZM10.6256 9.93103C10.0947 9.93103 9.72032 10.2578 9.72032 10.7751C9.72032 11.2788 10.0947 11.6191 10.6256 11.6191C11.1362 11.6191 11.5105 11.2788 11.5173 10.7751C11.5105 10.2578 11.1362 9.93103 10.6256 9.93103ZM11.987 12.6878C13.2803 12.6878 14.0904 13.1303 14.0904 13.8859C14.0904 14.6414 13.2803 15.0839 11.987 15.0839C10.7005 15.0839 9.89049 14.6414 9.8973 13.8859C9.89049 13.1303 10.7005 12.6878 11.987 12.6878ZM11.987 13.2664C11.1294 13.2664 10.6324 13.4842 10.6393 13.8859C10.6324 14.2738 11.1294 14.4917 11.987 14.4917C12.8583 14.4917 13.3484 14.2738 13.3484 13.8859C13.3484 13.4842 12.8583 13.2664 11.987 13.2664ZM12.1844 10.3803C12.2185 10.5062 12.2389 10.6355 12.2389 10.7751C12.2389 10.9112 12.2185 11.0406 12.1912 11.1631H13.3144V10.3803H12.1844ZM20.4175 12.3883V13.001H19.0494V15.0907H18.2802V13.001H16.9188V15.0907H16.1428V13.001H14.795V12.3883H20.4175ZM17.5927 9.15504C18.8996 9.16184 19.8117 9.69278 19.8117 10.53C19.8117 11.3537 18.8996 11.8778 17.5927 11.8778C16.2789 11.8778 15.3804 11.3537 15.3872 10.53C15.3804 9.69278 16.2789 9.16184 17.5927 9.15504ZM17.5927 9.76766C16.7214 9.76766 16.1564 10.0467 16.1632 10.53C16.1564 10.9997 16.7214 11.2788 17.5927 11.2788C18.464 11.2788 19.0289 10.9997 19.0289 10.53C19.0289 10.0467 18.464 9.76766 17.5927 9.76766ZM23.8654 9.78127C23.8654 10.7342 24.7979 11.6872 26.0845 11.9118L25.7441 12.5449C24.7129 12.3271 23.8688 11.7042 23.4706 10.8772C23.0622 11.6974 22.2181 12.3237 21.1903 12.5449L20.8567 11.9118C22.1296 11.6804 23.0554 10.7274 23.0622 9.78127V9.32521H23.8654V9.78127ZM26.3091 13.6816V14.3079H20.6866V13.6816H26.3091ZM29.2192 9.44773V10.0467H27.5311V10.6934H29.1579V11.2856H27.5311V11.9663C28.2832 11.9595 28.804 11.9323 29.403 11.8234L29.4846 12.4292C28.7631 12.5585 28.1641 12.5789 27.2111 12.5789H26.8027V9.44773H29.2192ZM31.833 8.94402V13.5387H31.1115V11.2924H30.4717V13.3889H29.7637V9.05974H30.4717V10.6798H31.1115V8.94402H31.833ZM32.0032 14.3555V14.9682H27.7148V13.001H28.4704V14.3555H32.0032ZM37.2753 8.93721V11.272H38.2215V11.8914H37.2753V15.0975H36.5197V8.93721H37.2753ZM35.5872 9.52261V10.1352H33.4634V12.9601C34.4198 12.9601 35.1754 12.9125 36.0228 12.7627L36.1113 13.4026C35.1584 13.5659 34.3279 13.5932 33.2184 13.5932H32.7079V9.52261H35.5872ZM43.337 11.8234V12.4292H39.0214V9.47496H43.2894V10.0876H39.7702V11.8234H43.337ZM43.9633 13.6816V14.3079H38.3407V13.6816H43.9633ZM47.4215 9.38647C48.2553 9.38647 48.8713 10.0808 48.9802 11.2039H50.151V8.93721H50.8998V15.0975H50.151V11.8165H48.987C48.9054 13.0044 48.2791 13.7361 47.4215 13.7361C46.4957 13.7361 45.8422 12.8988 45.8422 11.5579C45.8422 10.2305 46.4957 9.38647 47.4215 9.38647ZM47.4215 10.0672C46.9109 10.0672 46.5638 10.6185 46.5706 11.5579C46.5638 12.504 46.9109 13.0554 47.4215 13.0554C47.932 13.0554 48.2723 12.504 48.2791 11.5579C48.2723 10.6185 47.932 10.0672 47.4215 10.0672ZM55.2802 9.52942V10.1284H51.6317V9.52942H53.0816V8.90999H53.8371V9.52942H55.2802ZM53.4559 10.3667C54.3476 10.3667 54.9535 10.8159 54.9603 11.4898C54.9535 12.1637 54.3476 12.613 53.4559 12.613C52.5642 12.613 51.9448 12.1637 51.9448 11.4898C51.9448 10.8159 52.5642 10.3667 53.4559 10.3667ZM53.4559 10.9385C52.9863 10.9385 52.6799 11.1427 52.6799 11.4898C52.6799 11.837 52.9863 12.0344 53.4559 12.0276C53.9256 12.0344 54.2387 11.837 54.2387 11.4898C54.2387 11.1427 53.9256 10.9385 53.4559 10.9385ZM56.4782 8.93721V10.5709H57.3359V11.1903H56.4782V12.7899H55.7226V8.93721H56.4782ZM56.4782 13.0758V15.0907H55.7226V13.6816H52.3804V13.0758H56.4782ZM62.6693 8.94402V13.6H61.9069V13.0622H60.702V12.5313H61.9069V8.94402H62.6693ZM62.8122 14.3555V14.9682H58.2992V13.1507H59.0548V14.3555H62.8122ZM57.4824 11.7076C58.6191 11.7008 60.1439 11.6872 61.4508 11.5238L61.4917 12.0684C60.9845 12.1535 60.4604 12.2113 59.9397 12.2454V13.4298H59.1841V12.2862C58.6089 12.31 58.061 12.3135 57.5777 12.3135L57.4824 11.7076ZM59.4904 9.16865C60.3889 9.16865 61.0152 9.6111 61.022 10.2578C61.0152 10.918 60.3889 11.3401 59.4904 11.3401C58.5783 11.3401 57.952 10.918 57.952 10.2578C57.952 9.6111 58.5783 9.16865 59.4904 9.16865ZM59.4904 9.72682C59.0003 9.72682 58.6668 9.92422 58.6668 10.2578C58.6668 10.5913 59.0003 10.7887 59.4904 10.7887C59.9601 10.7887 60.2936 10.5913 60.3004 10.2578C60.2936 9.92422 59.9601 9.72682 59.4904 9.72682Z" fill="#171717"/>
<rect x="123.723" y="7.48486" width="43.5644" height="12.198" rx="3.48515" fill="#FF7049"/>
<path d="M130.069 14.7969V15.8775H127.465V14.7969H130.069ZM127.797 15.0564V15.618H129.742V15.0564H127.797ZM130.29 12.4656V12.7251H127.223V12.4656H128.601V12.0912H128.933V12.4656H130.29ZM128.767 12.8782C129.55 12.8825 129.993 13.0612 129.993 13.4143C129.993 13.7461 129.612 13.9227 128.933 13.9461V14.2396H130.49V14.5076H127.044V14.2396H128.601V13.9461C127.921 13.9227 127.538 13.7461 127.538 13.4143C127.538 13.0612 127.984 12.8825 128.767 12.8782ZM128.767 13.1122C128.21 13.1165 127.891 13.2186 127.895 13.4143C127.891 13.6057 128.21 13.7163 128.767 13.7163C129.32 13.7163 129.639 13.6057 129.639 13.4143C129.639 13.2186 129.32 13.1165 128.767 13.1122ZM134.042 12.1465V15.9286H133.719V12.1465H134.042ZM133.302 12.2401V15.7286H132.983V13.8865H132.455V13.5844H132.983V12.2401H133.302ZM132.566 12.6315V12.908H132.247V14.6565C132.389 14.648 132.525 14.6353 132.651 14.6183L132.672 14.865C132.077 14.9756 131.281 14.9926 130.788 14.9926L130.745 14.7076L131.145 14.7033V12.908H130.826V12.6315H132.566ZM131.451 14.6991C131.609 14.6948 131.775 14.6884 131.936 14.6778V12.908H131.451V14.6991ZM137.649 12.1465V15.9371H137.313V12.1465H137.649ZM135.637 12.44C136.199 12.4443 136.603 12.9548 136.603 13.7589C136.603 14.5629 136.199 15.0735 135.637 15.0735C135.071 15.0735 134.671 14.5629 134.671 13.7589C134.671 12.9548 135.071 12.4443 135.637 12.44ZM135.637 12.7378C135.258 12.7421 134.995 13.142 134.995 13.7589C134.995 14.3758 135.258 14.7757 135.637 14.7757C136.016 14.7757 136.279 14.3758 136.279 13.7589C136.279 13.142 136.016 12.7421 135.637 12.7378ZM139.627 13.3079C139.627 13.9503 140.095 14.6012 140.652 14.8437L140.465 15.1075C140.023 14.9054 139.64 14.4693 139.465 13.9461C139.287 14.5013 138.906 14.9841 138.474 15.2011L138.274 14.9373C138.814 14.6778 139.287 13.9631 139.291 13.3079V12.8144H138.398V12.5379H140.529V12.8144H139.627V13.3079ZM141.393 12.1465V15.9286H141.057V12.1465H141.393ZM146.016 12.1465V13.6355H146.65V13.9248H146.016V15.9286H145.684V12.1465H146.016ZM143.578 12.4698V13.4696H144.684V12.4698H145.016V15.0224H143.246V12.4698H143.578ZM143.578 14.7416H144.684V13.7376H143.578V14.7416ZM150.295 15.1798V15.4606H146.832V15.1798H148.389V14.4651H147.266V13.2994H149.53V12.7038H147.258V12.4273H149.857V13.5717H147.598V14.1886H149.947V14.4651H148.717V15.1798H150.295ZM153.503 12.1465V13.6866H154.115V13.9673H153.503V15.9286H153.171V12.1465H153.503ZM152.524 12.5549C152.524 13.627 152.022 14.6012 150.788 15.2096L150.601 14.9458C151.58 14.4587 152.111 13.7312 152.188 12.8357H150.776V12.5549H152.524ZM157.446 12.1465V15.9286H157.11V12.1465H157.446ZM156.327 12.5592C156.323 13.6483 155.816 14.6097 154.549 15.2181L154.366 14.9458C155.389 14.4608 155.91 13.7355 155.987 12.8314H154.54V12.5592H156.327Z" fill="white"/>
<path d="M160.198 13.5835H162.376" stroke="white" stroke-width="0.435644" stroke-linecap="square" stroke-linejoin="round"/>
<path d="M161.505 12.4946L162.594 13.5837L161.505 14.6728" stroke="white" stroke-width="0.435644" stroke-linecap="square"/>
<g clip-path="url(#clip0_1786_7262)">
<path d="M12.7051 26.8413C12.5057 26.8413 12.2258 26.7692 11.8065 26.5349C11.2967 26.249 10.9024 25.9851 10.3954 25.4794C9.90649 24.9908 9.66859 24.6745 9.33563 24.0686C8.95948 23.3845 9.0236 23.0259 9.09527 22.8727C9.18063 22.6895 9.30663 22.5799 9.46948 22.4712C9.56199 22.4106 9.65987 22.3586 9.76191 22.316C9.77212 22.3116 9.78162 22.3074 9.79009 22.3037C9.84063 22.2809 9.91721 22.2465 10.0142 22.2832C10.0789 22.3075 10.1367 22.3573 10.2272 22.4466C10.4127 22.6296 10.6662 23.0371 10.7598 23.2372C10.8226 23.3721 10.8641 23.4611 10.8642 23.561C10.8642 23.6779 10.8054 23.768 10.734 23.8653C10.7207 23.8836 10.7074 23.9011 10.6945 23.918C10.6168 24.0201 10.5998 24.0496 10.611 24.1023C10.6338 24.2082 10.8036 24.5234 11.0826 24.8018C11.3617 25.0803 11.6678 25.2393 11.7741 25.262C11.829 25.2738 11.8591 25.256 11.9645 25.1755C11.9796 25.164 11.9951 25.152 12.0114 25.1401C12.1202 25.0591 12.2062 25.0018 12.3203 25.0018H12.3209C12.4203 25.0018 12.5053 25.0449 12.6462 25.116C12.83 25.2087 13.2498 25.459 13.4339 25.6447C13.5234 25.735 13.5733 25.7925 13.5978 25.8572C13.6345 25.9545 13.5999 26.0308 13.5773 26.0818C13.5736 26.0903 13.5694 26.0996 13.565 26.1099C13.522 26.2117 13.4697 26.3094 13.4089 26.4017C13.3003 26.564 13.1904 26.6897 13.0068 26.7752C12.9125 26.8198 12.8093 26.8424 12.7051 26.8413Z" fill="#C4C4C4"/>
</g>
<path d="M17.2402 26.6053C16.4183 26.6053 15.9486 25.916 15.9486 24.7061C15.9486 23.5064 16.4285 22.807 17.2402 22.807C18.0519 22.807 18.5318 23.5064 18.5318 24.7061C18.5318 25.916 18.057 26.6053 17.2402 26.6053ZM17.2402 26.1968C17.7711 26.1968 18.0825 25.6608 18.0825 24.7061C18.0825 23.7514 17.7711 23.2052 17.2402 23.2052C16.7093 23.2052 16.3927 23.7514 16.3927 24.7061C16.3927 25.6608 16.7041 26.1968 17.2402 26.1968ZM20.3282 26.6053C19.5063 26.6053 19.0366 25.916 19.0366 24.7061C19.0366 23.5064 19.5165 22.807 20.3282 22.807C21.1399 22.807 21.6198 23.5064 21.6198 24.7061C21.6198 25.916 21.1451 26.6053 20.3282 26.6053ZM20.3282 26.1968C20.8592 26.1968 21.1706 25.6608 21.1706 24.7061C21.1706 23.7514 20.8592 23.2052 20.3282 23.2052C19.7973 23.2052 19.4808 23.7514 19.4808 24.7061C19.4808 25.6608 19.7922 26.1968 20.3282 26.1968ZM23.7991 24.507V24.9103H22.1808V24.507H23.7991ZM25.6517 26.6053C24.8298 26.6053 24.3601 25.916 24.3601 24.7061C24.3601 23.5064 24.84 22.807 25.6517 22.807C26.4634 22.807 26.9433 23.5064 26.9433 24.7061C26.9433 25.916 26.4686 26.6053 25.6517 26.6053ZM25.6517 26.1968C26.1827 26.1968 26.4941 25.6608 26.4941 24.7061C26.4941 23.7514 26.1827 23.2052 25.6517 23.2052C25.1208 23.2052 24.8043 23.7514 24.8043 24.7061C24.8043 25.6608 25.1157 26.1968 25.6517 26.1968ZM28.7398 26.6053C27.9178 26.6053 27.4481 25.916 27.4481 24.7061C27.4481 23.5064 27.928 22.807 28.7398 22.807C29.5515 22.807 30.0314 23.5064 30.0314 24.7061C30.0314 25.916 29.5566 26.6053 28.7398 26.6053ZM28.7398 26.1968C29.2707 26.1968 29.5821 25.6608 29.5821 24.7061C29.5821 23.7514 29.2707 23.2052 28.7398 23.2052C28.2088 23.2052 27.8923 23.7514 27.8923 24.7061C27.8923 25.6608 28.2037 26.1968 28.7398 26.1968ZM31.8278 26.6053C31.0058 26.6053 30.5362 25.916 30.5362 24.7061C30.5362 23.5064 31.0161 22.807 31.8278 22.807C32.6395 22.807 33.1194 23.5064 33.1194 24.7061C33.1194 25.916 32.6446 26.6053 31.8278 26.6053ZM31.8278 26.1968C32.3587 26.1968 32.6701 25.6608 32.6701 24.7061C32.6701 23.7514 32.3587 23.2052 31.8278 23.2052C31.2968 23.2052 30.9803 23.7514 30.9803 24.7061C30.9803 25.6608 31.2917 26.1968 31.8278 26.1968ZM35.2987 24.507V24.9103H33.6804V24.507H35.2987ZM37.1513 26.6053C36.3293 26.6053 35.8597 25.916 35.8597 24.7061C35.8597 23.5064 36.3396 22.807 37.1513 22.807C37.963 22.807 38.4429 23.5064 38.4429 24.7061C38.4429 25.916 37.9681 26.6053 37.1513 26.6053ZM37.1513 26.1968C37.6822 26.1968 37.9936 25.6608 37.9936 24.7061C37.9936 23.7514 37.6822 23.2052 37.1513 23.2052C36.6203 23.2052 36.3038 23.7514 36.3038 24.7061C36.3038 25.6608 36.6152 26.1968 37.1513 26.1968ZM40.2393 26.6053C39.4174 26.6053 38.9477 25.916 38.9477 24.7061C38.9477 23.5064 39.4276 22.807 40.2393 22.807C41.051 22.807 41.5309 23.5064 41.5309 24.7061C41.5309 25.916 41.0561 26.6053 40.2393 26.6053ZM40.2393 26.1968C40.7703 26.1968 41.0817 25.6608 41.0817 24.7061C41.0817 23.7514 40.7703 23.2052 40.2393 23.2052C39.7084 23.2052 39.3918 23.7514 39.3918 24.7061C39.3918 25.6608 39.7033 26.1968 40.2393 26.1968ZM43.3273 26.6053C42.5054 26.6053 42.0357 25.916 42.0357 24.7061C42.0357 23.5064 42.5156 22.807 43.3273 22.807C44.1391 22.807 44.619 23.5064 44.619 24.7061C44.619 25.916 44.1442 26.6053 43.3273 26.6053ZM43.3273 26.1968C43.8583 26.1968 44.1697 25.6608 44.1697 24.7061C44.1697 23.7514 43.8583 23.2052 43.3273 23.2052C42.7964 23.2052 42.4799 23.7514 42.4799 24.7061C42.4799 25.6608 42.7913 26.1968 43.3273 26.1968Z" fill="#2A2A2A"/>
<g clip-path="url(#clip1_1786_7262)">
<path d="M11.327 34.188C11.1826 34.188 11.0441 34.1306 10.9419 34.0285C10.8398 33.9263 10.7824 33.7878 10.7824 33.6434C10.7824 33.499 10.8398 33.3605 10.9419 33.2583C11.0441 33.1562 11.1826 33.0989 11.327 33.0989C11.4714 33.0989 11.6099 33.1562 11.7121 33.2583C11.8142 33.3605 11.8716 33.499 11.8716 33.6434C11.8716 33.7149 11.8575 33.7857 11.8301 33.8518C11.8027 33.9179 11.7626 33.9779 11.7121 34.0285C11.6615 34.079 11.6015 34.1191 11.5354 34.1465C11.4693 34.1739 11.3985 34.188 11.327 34.188ZM11.327 32.1187C10.9226 32.1187 10.5348 32.2793 10.2488 32.5652C9.96289 32.8512 9.80225 33.239 9.80225 33.6434C9.80225 34.787 11.327 36.4751 11.327 36.4751C11.327 36.4751 12.8518 34.787 12.8518 33.6434C12.8518 33.239 12.6911 32.8512 12.4052 32.5652C12.1192 32.2793 11.7314 32.1187 11.327 32.1187Z" fill="#C4C4C4"/>
</g>
<path d="M17.4648 33.392C17.4648 34.214 17.9907 35.041 18.6492 35.3422L18.4093 35.6689C17.8937 35.4035 17.4674 34.8598 17.2657 34.214C17.0641 34.8929 16.6378 35.4749 16.1222 35.7506L15.8618 35.429C16.5255 35.1023 17.0564 34.2293 17.0564 33.392V32.565H17.4648V33.392ZM19.6294 32.1719V36.7206H19.2312V34.0506H18.154V33.7239H19.2312V32.1719H19.6294ZM22.4265 32.228C23.4373 32.228 24.0295 32.5088 24.0295 33.0142C24.0295 33.5248 23.4373 33.8004 22.4265 33.8055C21.4156 33.8004 20.8183 33.5248 20.8183 33.0142C20.8183 32.5088 21.4156 32.228 22.4265 32.228ZM22.4265 32.5343C21.6709 32.5394 21.2318 32.713 21.2369 33.0142C21.2318 33.3256 21.6709 33.4941 22.4265 33.4992C23.1769 33.4941 23.6211 33.3256 23.6211 33.0142C23.6211 32.713 23.1769 32.5394 22.4265 32.5343ZM24.4941 34.1067V34.4284H22.6205V34.8572H23.9631V35.8731H21.2676V36.3428H24.101V36.6593H20.8694V35.577H23.57V35.1635H20.8592V34.8572H22.2223V34.4284H20.3589V34.1067H24.4941ZM28.986 34.5764V34.8981H24.8457V34.5764H28.986ZM28.45 35.3422V36.7104H28.0416V35.6638H25.3103V35.3422H28.45ZM28.4959 33.826V34.1374H25.3971V32.2944H28.4704V32.616H25.8004V33.05H28.3479V33.3614H25.8004V33.826H28.4959ZM33.1002 32.1719V34.5458H32.702V33.9638H31.6299V34.362H29.5725V32.3863H29.9707V33.0398H31.2368V32.3863H31.6299V32.8253H32.702V32.1719H33.1002ZM33.1002 34.7653V35.8323H30.568V36.3275H33.2738V36.6491H30.1698V35.526H32.702V35.0869H30.1596V34.7653H33.1002ZM29.9707 34.0353H31.2368V33.3563H29.9707V34.0353ZM31.6299 33.6473H32.702V33.1368H31.6299V33.6473ZM35.448 33.392C35.4429 34.2191 36.0096 35.0563 36.6783 35.3575L36.4333 35.674C35.9177 35.4213 35.471 34.8878 35.254 34.2395C35.0421 34.9261 34.5954 35.4979 34.0645 35.7659L33.8092 35.429C34.4831 35.1176 35.0447 34.2548 35.0498 33.392V32.565H35.448V33.392ZM37.5768 32.1719V36.7206H37.1735V32.1719H37.5768ZM40.9961 32.5854C40.9961 32.9249 41.2361 33.3716 41.6802 33.6218C42.1218 33.3767 42.3592 32.9428 42.3592 32.5854V32.2689H42.7574V32.5854C42.7574 33.0193 43.0586 33.4788 43.6253 33.6677L43.4313 33.974C42.9948 33.8132 42.7012 33.5069 42.5583 33.147C42.4102 33.512 42.1218 33.8515 41.6802 34.02C41.2309 33.8464 40.9425 33.4941 40.797 33.1265C40.649 33.4788 40.358 33.7979 39.9291 33.9638L39.7249 33.6677C40.2865 33.4635 40.5979 32.9683 40.5979 32.5854V32.2689H40.9961V32.5854ZM43.7631 34.2956V34.6275H41.8742V35.2656H43.2271V36.7104H42.8238V35.5924H40.0619V35.2656H41.4811V34.6275H39.6126V34.2956H43.7631ZM45.4881 32.5854C45.4881 32.9249 45.728 33.3716 46.1722 33.6218C46.6138 33.3767 46.8512 32.9428 46.8512 32.5854V32.2689H47.2494V32.5854C47.2494 33.0193 47.5506 33.4788 48.1172 33.6677L47.9232 33.974C47.4868 33.8132 47.1932 33.5069 47.0503 33.147C46.9022 33.512 46.6138 33.8515 46.1722 34.02C45.7229 33.8464 45.4345 33.4941 45.289 33.1265C45.1409 33.4788 44.8499 33.7979 44.4211 33.9638L44.2169 33.6677C44.7784 33.4635 45.0899 32.9683 45.0899 32.5854V32.2689H45.4881V32.5854ZM48.2551 34.2956V34.6275H46.3662V35.2656H47.719V36.7104H47.3157V35.5924H44.5538V35.2656H45.9731V34.6275H44.1046V34.2956H48.2551ZM52.2161 32.6364V33.198C52.2161 33.8668 52.2161 34.4845 52.0272 35.4035L51.6239 35.3677C51.7235 34.9312 51.7745 34.5534 51.8026 34.1986L49.0305 34.3518L48.9743 34.02L51.8179 33.9025C51.8256 33.6626 51.8256 33.4303 51.8281 33.198V32.9734H49.0968V32.6364H52.2161ZM52.7317 35.7353V36.0722H48.5965V35.7353H52.7317ZM56.6774 32.468V32.8662C56.6774 33.2976 56.6774 33.7647 56.5498 34.4182H57.2237V34.75H55.3501V36.7206H54.9468V34.75H53.0885V34.4182H56.1414C56.2792 33.7647 56.2792 33.2874 56.2792 32.8662V32.7998H53.6092V32.468H56.6774ZM62.7208 32.1719V35.0461H62.3379V33.7443H61.7304V34.8827H61.3526V32.2638H61.7304V33.4124H62.3379V32.1719H62.7208ZM61.1688 32.7181V33.0398H58.8408V32.7181H59.8108V32.2076H60.209V32.7181H61.1688ZM60.0099 33.2848C60.5868 33.2848 60.9799 33.586 60.985 34.0608C60.9799 34.5254 60.5868 34.8317 60.0099 34.8317C59.4381 34.8317 59.0348 34.5254 59.0399 34.0608C59.0348 33.586 59.4381 33.2848 60.0099 33.2848ZM60.0099 33.5809C59.6474 33.5809 59.3973 33.7749 59.3973 34.0608C59.3973 34.3416 59.6474 34.5305 60.0099 34.5305C60.3724 34.5305 60.6225 34.3416 60.6225 34.0608C60.6225 33.7749 60.3724 33.5809 60.0099 33.5809ZM61.2198 35.1227C62.1745 35.1227 62.7463 35.4086 62.7463 35.9191C62.7463 36.4143 62.1745 36.7002 61.2198 36.7002C60.2652 36.7002 59.6934 36.4143 59.6985 35.9191C59.6934 35.4086 60.2652 35.1227 61.2198 35.1227ZM61.2198 35.4392C60.5153 35.4341 60.0916 35.6077 60.0967 35.9191C60.0916 36.2152 60.5153 36.3888 61.2198 36.3888C61.9244 36.3888 62.343 36.2152 62.3481 35.9191C62.343 35.6077 61.9244 35.4341 61.2198 35.4392ZM67.4935 34.5203V34.8521H63.3583V34.5203H65.2268V33.974H63.9097V32.2791H64.3079V32.8049H66.5542V32.2791H66.9524V33.974H65.625V34.5203H67.4935ZM66.983 35.3014V36.7104H66.5797V35.623H63.8178V35.3014H66.983ZM64.3079 33.6524H66.5542V33.1112H64.3079V33.6524ZM70.117 32.9581V33.2848H67.8401V32.9581H68.7845V32.3097H69.1827V32.9581H70.117ZM68.9785 33.5911C69.5503 33.5911 69.9587 34.02 69.9638 34.6224C69.9587 35.2299 69.5503 35.6638 68.9785 35.6638C68.4118 35.6638 68.0034 35.2299 68.0034 34.6224C68.0034 34.02 68.4118 33.5911 68.9785 33.5911ZM68.9785 33.9281C68.6211 33.9332 68.3608 34.2242 68.3608 34.6224C68.3608 35.0257 68.6211 35.3167 68.9785 35.3116C69.341 35.3167 69.6065 35.0257 69.6065 34.6224C69.6065 34.2242 69.341 33.9332 68.9785 33.9281ZM71.7149 32.1719V36.7104H71.332V34.4182H70.7296V36.4858H70.3518V32.2842H70.7296V34.0863H71.332V32.1719H71.7149ZM76.4825 34.4182V34.7398H72.3422V34.4182H74.2158V33.8872H72.8681V32.3863H75.9669V32.7079H73.2612V33.5605H75.9975V33.8872H74.6038V34.4182H76.4825ZM74.4098 35.0716C75.3849 35.0716 75.9669 35.3677 75.972 35.8885C75.9669 36.4143 75.3849 36.7053 74.4098 36.7104C73.4296 36.7053 72.8425 36.4143 72.8425 35.8885C72.8425 35.3677 73.4296 35.0716 74.4098 35.0716ZM74.4098 35.3881C73.6798 35.3881 73.2458 35.577 73.251 35.8885C73.2458 36.205 73.6798 36.3888 74.4098 36.3888C75.1297 36.3888 75.5687 36.205 75.5687 35.8885C75.5687 35.577 75.1297 35.3881 74.4098 35.3881Z" fill="#2A2A2A"/>
<rect x="0.217822" y="49.8414" width="175.564" height="44.3168" rx="5.0099" fill="white"/>
<rect x="0.217822" y="49.8414" width="175.564" height="44.3168" rx="5.0099" stroke="#F7F7F7" stroke-width="0.435644"/>
<path d="M10.6256 58.3933C11.1225 58.3933 11.5514 58.577 11.8441 58.8834H13.3144V58.0461H14.0699V61.6674H13.3144V60.8846H11.8441C11.5514 61.1909 11.1191 61.3713 10.6256 61.3679C9.6999 61.3747 8.99878 60.7485 8.99878 59.884C8.99878 59.0127 9.6999 58.3933 10.6256 58.3933ZM10.6256 59.0399C10.0947 59.0399 9.72032 59.3666 9.72032 59.884C9.72032 60.3877 10.0947 60.728 10.6256 60.728C11.1362 60.728 11.5105 60.3877 11.5173 59.884C11.5105 59.3666 11.1362 59.0399 10.6256 59.0399ZM11.987 61.7967C13.2803 61.7967 14.0904 62.2392 14.0904 62.9947C14.0904 63.7503 13.2803 64.1928 11.987 64.1928C10.7005 64.1928 9.89049 63.7503 9.8973 62.9947C9.89049 62.2392 10.7005 61.7967 11.987 61.7967ZM11.987 62.3753C11.1294 62.3753 10.6324 62.5931 10.6393 62.9947C10.6324 63.3827 11.1294 63.6006 11.987 63.6006C12.8583 63.6006 13.3484 63.3827 13.3484 62.9947C13.3484 62.5931 12.8583 62.3753 11.987 62.3753ZM12.1844 59.4892C12.2185 59.6151 12.2389 59.7444 12.2389 59.884C12.2389 60.0201 12.2185 60.1494 12.1912 60.272H13.3144V59.4892H12.1844ZM20.4175 61.4972V62.1098H19.0494V64.1996H18.2802V62.1098H16.9188V64.1996H16.1428V62.1098H14.795V61.4972H20.4175ZM17.5927 58.2639C18.8996 58.2707 19.8117 58.8017 19.8117 59.6389C19.8117 60.4626 18.8996 60.9867 17.5927 60.9867C16.2789 60.9867 15.3804 60.4626 15.3872 59.6389C15.3804 58.8017 16.2789 58.2707 17.5927 58.2639ZM17.5927 58.8765C16.7214 58.8765 16.1564 59.1556 16.1632 59.6389C16.1564 60.1086 16.7214 60.3877 17.5927 60.3877C18.464 60.3877 19.0289 60.1086 19.0289 59.6389C19.0289 59.1556 18.464 58.8765 17.5927 58.8765ZM23.8654 58.8902C23.8654 59.8431 24.7979 60.7961 26.0845 61.0207L25.7441 61.6538C24.7129 61.436 23.8688 60.8131 23.4706 59.9861C23.0622 60.8063 22.2181 61.4325 21.1903 61.6538L20.8567 61.0207C22.1296 60.7893 23.0554 59.8363 23.0622 58.8902V58.4341H23.8654V58.8902ZM26.3091 62.7905V63.4168H20.6866V62.7905H26.3091ZM29.2192 58.5566V59.1556H27.5311V59.8023H29.1579V60.3945H27.5311V61.0752C28.2832 61.0684 28.804 61.0412 29.403 60.9322L29.4846 61.5381C28.7631 61.6674 28.1641 61.6878 27.2111 61.6878H26.8027V58.5566H29.2192ZM31.833 58.0529V62.6476H31.1115V60.4013H30.4717V62.4978H29.7637V58.1686H30.4717V59.7887H31.1115V58.0529H31.833ZM32.0032 63.4644V64.077H27.7148V62.1098H28.4704V63.4644H32.0032ZM37.2753 58.0461V60.3809H38.2215V61.0003H37.2753V64.2064H36.5197V58.0461H37.2753ZM35.5872 58.6315V59.2441H33.4634V62.069C34.4198 62.069 35.1754 62.0213 36.0228 61.8716L36.1113 62.5114C35.1584 62.6748 34.3279 62.702 33.2184 62.702H32.7079V58.6315H35.5872ZM43.337 60.9322V61.5381H39.0214V58.5838H43.2894V59.1965H39.7702V60.9322H43.337ZM43.9633 62.7905V63.4168H38.3407V62.7905H43.9633ZM47.4215 58.4954C48.2553 58.4954 48.8713 59.1897 48.9802 60.3128H50.151V58.0461H50.8998V64.2064H50.151V60.9254H48.987C48.9054 62.1132 48.2791 62.845 47.4215 62.845C46.4957 62.845 45.8422 62.0077 45.8422 60.6668C45.8422 59.3394 46.4957 58.4954 47.4215 58.4954ZM47.4215 59.1761C46.9109 59.1761 46.5638 59.7274 46.5706 60.6668C46.5638 61.6129 46.9109 62.1643 47.4215 62.1643C47.932 62.1643 48.2723 61.6129 48.2791 60.6668C48.2723 59.7274 47.932 59.1761 47.4215 59.1761ZM55.2802 58.6383V59.2373H51.6317V58.6383H53.0816V58.0189H53.8371V58.6383H55.2802ZM53.4559 59.4756C54.3476 59.4756 54.9535 59.9248 54.9603 60.5987C54.9535 61.2726 54.3476 61.7218 53.4559 61.7218C52.5642 61.7218 51.9448 61.2726 51.9448 60.5987C51.9448 59.9248 52.5642 59.4756 53.4559 59.4756ZM53.4559 60.0473C52.9863 60.0473 52.6799 60.2515 52.6799 60.5987C52.6799 60.9459 52.9863 61.1433 53.4559 61.1364C53.9256 61.1433 54.2387 60.9459 54.2387 60.5987C54.2387 60.2515 53.9256 60.0473 53.4559 60.0473ZM56.4782 58.0461V59.6798H57.3359V60.2992H56.4782V61.8988H55.7226V58.0461H56.4782ZM56.4782 62.1847V64.1996H55.7226V62.7905H52.3804V62.1847H56.4782ZM62.6693 58.0529V62.7088H61.9069V62.1711H60.702V61.6402H61.9069V58.0529H62.6693ZM62.8122 63.4644V64.077H58.2992V62.2596H59.0548V63.4644H62.8122ZM57.4824 60.8165C58.6191 60.8097 60.1439 60.7961 61.4508 60.6327L61.4917 61.1773C60.9845 61.2624 60.4604 61.3202 59.9397 61.3543V62.5387H59.1841V61.3951C58.6089 61.4189 58.061 61.4223 57.5777 61.4223L57.4824 60.8165ZM59.4904 58.2775C60.3889 58.2775 61.0152 58.72 61.022 59.3666C61.0152 60.0269 60.3889 60.4489 59.4904 60.4489C58.5783 60.4489 57.952 60.0269 57.952 59.3666C57.952 58.72 58.5783 58.2775 59.4904 58.2775ZM59.4904 58.8357C59.0003 58.8357 58.6668 59.0331 58.6668 59.3666C58.6668 59.7002 59.0003 59.8976 59.4904 59.8976C59.9601 59.8976 60.2936 59.7002 60.3004 59.3666C60.2936 59.0331 59.9601 58.8357 59.4904 58.8357Z" fill="#171717"/>
<rect x="123.723" y="56.5938" width="43.5644" height="12.198" rx="3.48515" fill="#FF7049"/>
<path d="M130.069 63.9058V64.9864H127.465V63.9058H130.069ZM127.797 64.1653V64.7269H129.742V64.1653H127.797ZM130.29 61.5744V61.834H127.223V61.5744H128.601V61.2001H128.933V61.5744H130.29ZM128.767 61.9871C129.55 61.9914 129.993 62.1701 129.993 62.5232C129.993 62.855 129.612 63.0316 128.933 63.055V63.3485H130.49V63.6165H127.044V63.3485H128.601V63.055C127.921 63.0316 127.538 62.855 127.538 62.5232C127.538 62.1701 127.984 61.9914 128.767 61.9871ZM128.767 62.2211C128.21 62.2254 127.891 62.3275 127.895 62.5232C127.891 62.7146 128.21 62.8252 128.767 62.8252C129.32 62.8252 129.639 62.7146 129.639 62.5232C129.639 62.3275 129.32 62.2254 128.767 62.2211ZM134.042 61.2554V65.0375H133.719V61.2554H134.042ZM133.302 61.349V64.8375H132.983V62.9954H132.455V62.6933H132.983V61.349H133.302ZM132.566 61.7404V62.0169H132.247V63.7654C132.389 63.7569 132.525 63.7442 132.651 63.7271L132.672 63.9739C132.077 64.0845 131.281 64.1015 130.788 64.1015L130.745 63.8165L131.145 63.8122V62.0169H130.826V61.7404H132.566ZM131.451 63.808C131.609 63.8037 131.775 63.7973 131.936 63.7867V62.0169H131.451V63.808ZM137.649 61.2554V65.046H137.313V61.2554H137.649ZM135.637 61.5489C136.199 61.5532 136.603 62.0637 136.603 62.8678C136.603 63.6718 136.199 64.1824 135.637 64.1824C135.071 64.1824 134.671 63.6718 134.671 62.8678C134.671 62.0637 135.071 61.5532 135.637 61.5489ZM135.637 61.8467C135.258 61.851 134.995 62.2509 134.995 62.8678C134.995 63.4846 135.258 63.8845 135.637 63.8845C136.016 63.8845 136.279 63.4846 136.279 62.8678C136.279 62.2509 136.016 61.851 135.637 61.8467ZM139.627 62.4168C139.627 63.0592 140.095 63.7101 140.652 63.9526L140.465 64.2164C140.023 64.0143 139.64 63.5782 139.465 63.055C139.287 63.6101 138.906 64.093 138.474 64.31L138.274 64.0462C138.814 63.7867 139.287 63.072 139.291 62.4168V61.9233H138.398V61.6468H140.529V61.9233H139.627V62.4168ZM141.393 61.2554V65.0375H141.057V61.2554H141.393ZM146.016 61.2554V62.7444H146.65V63.0337H146.016V65.0375H145.684V61.2554H146.016ZM143.578 61.5787V62.5785H144.684V61.5787H145.016V64.1313H143.246V61.5787H143.578ZM143.578 63.8505H144.684V62.8465H143.578V63.8505ZM150.295 64.2887V64.5695H146.832V64.2887H148.389V63.574H147.266V62.4083H149.53V61.8127H147.258V61.5362H149.857V62.6806H147.598V63.2975H149.947V63.574H148.717V64.2887H150.295ZM153.503 61.2554V62.7954H154.115V63.0762H153.503V65.0375H153.171V61.2554H153.503ZM152.524 61.6638C152.524 62.7359 152.022 63.7101 150.788 64.3185L150.601 64.0547C151.58 63.5676 152.111 62.8401 152.188 61.9446H150.776V61.6638H152.524ZM157.446 61.2554V65.0375H157.11V61.2554H157.446ZM156.327 61.668C156.323 62.7572 155.816 63.7186 154.549 64.327L154.366 64.0547C155.389 63.5697 155.91 62.8444 155.987 61.9403H154.54V61.668H156.327Z" fill="white"/>
<path d="M160.198 62.6924H162.376" stroke="white" stroke-width="0.435644" stroke-linecap="square" stroke-linejoin="round"/>
<path d="M161.505 61.6035L162.594 62.6926L161.505 63.7817" stroke="white" stroke-width="0.435644" stroke-linecap="square"/>
<g clip-path="url(#clip2_1786_7262)">
<path d="M12.7051 75.9501C12.5057 75.9501 12.2258 75.8781 11.8065 75.6438C11.2967 75.3579 10.9024 75.094 10.3954 74.5883C9.90649 74.0997 9.66859 73.7834 9.33563 73.1775C8.95948 72.4934 9.0236 72.1348 9.09527 71.9816C9.18063 71.7984 9.30663 71.6888 9.46948 71.5801C9.56199 71.5195 9.65987 71.4675 9.76191 71.4249C9.77212 71.4205 9.78162 71.4163 9.79009 71.4125C9.84063 71.3898 9.91721 71.3554 10.0142 71.3921C10.0789 71.4164 10.1367 71.4661 10.2272 71.5555C10.4127 71.7385 10.6662 72.1459 10.7598 72.3461C10.8226 72.481 10.8641 72.57 10.8642 72.6698C10.8642 72.7868 10.8054 72.8769 10.734 72.9742C10.7207 72.9925 10.7074 73.01 10.6945 73.0269C10.6168 73.129 10.5998 73.1585 10.611 73.2112C10.6338 73.3171 10.8036 73.6323 11.0826 73.9107C11.3617 74.1892 11.6678 74.3482 11.7741 74.3709C11.829 74.3826 11.8591 74.3649 11.9645 74.2844C11.9796 74.2729 11.9951 74.2609 12.0114 74.249C12.1202 74.168 12.2062 74.1107 12.3203 74.1107H12.3209C12.4203 74.1107 12.5053 74.1538 12.6462 74.2249C12.83 74.3176 13.2498 74.5679 13.4339 74.7536C13.5234 74.8438 13.5733 74.9014 13.5978 74.9661C13.6345 75.0634 13.5999 75.1396 13.5773 75.1907C13.5736 75.1992 13.5694 75.2085 13.565 75.2188C13.522 75.3206 13.4697 75.4183 13.4089 75.5106C13.3003 75.6729 13.1904 75.7986 13.0068 75.8841C12.9125 75.9287 12.8093 75.9513 12.7051 75.9501Z" fill="#C4C4C4"/>
</g>
<path d="M17.2402 75.7141C16.4183 75.7141 15.9486 75.0249 15.9486 73.815C15.9486 72.6153 16.4285 71.9159 17.2402 71.9159C18.0519 71.9159 18.5318 72.6153 18.5318 73.815C18.5318 75.0249 18.057 75.7141 17.2402 75.7141ZM17.2402 75.3057C17.7711 75.3057 18.0825 74.7697 18.0825 73.815C18.0825 72.8603 17.7711 72.3141 17.2402 72.3141C16.7093 72.3141 16.3927 72.8603 16.3927 73.815C16.3927 74.7697 16.7041 75.3057 17.2402 75.3057ZM20.3282 75.7141C19.5063 75.7141 19.0366 75.0249 19.0366 73.815C19.0366 72.6153 19.5165 71.9159 20.3282 71.9159C21.1399 71.9159 21.6198 72.6153 21.6198 73.815C21.6198 75.0249 21.1451 75.7141 20.3282 75.7141ZM20.3282 75.3057C20.8592 75.3057 21.1706 74.7697 21.1706 73.815C21.1706 72.8603 20.8592 72.3141 20.3282 72.3141C19.7973 72.3141 19.4808 72.8603 19.4808 73.815C19.4808 74.7697 19.7922 75.3057 20.3282 75.3057ZM23.7991 73.6159V74.0192H22.1808V73.6159H23.7991ZM25.6517 75.7141C24.8298 75.7141 24.3601 75.0249 24.3601 73.815C24.3601 72.6153 24.84 71.9159 25.6517 71.9159C26.4634 71.9159 26.9433 72.6153 26.9433 73.815C26.9433 75.0249 26.4686 75.7141 25.6517 75.7141ZM25.6517 75.3057C26.1827 75.3057 26.4941 74.7697 26.4941 73.815C26.4941 72.8603 26.1827 72.3141 25.6517 72.3141C25.1208 72.3141 24.8043 72.8603 24.8043 73.815C24.8043 74.7697 25.1157 75.3057 25.6517 75.3057ZM28.7398 75.7141C27.9178 75.7141 27.4481 75.0249 27.4481 73.815C27.4481 72.6153 27.928 71.9159 28.7398 71.9159C29.5515 71.9159 30.0314 72.6153 30.0314 73.815C30.0314 75.0249 29.5566 75.7141 28.7398 75.7141ZM28.7398 75.3057C29.2707 75.3057 29.5821 74.7697 29.5821 73.815C29.5821 72.8603 29.2707 72.3141 28.7398 72.3141C28.2088 72.3141 27.8923 72.8603 27.8923 73.815C27.8923 74.7697 28.2037 75.3057 28.7398 75.3057ZM31.8278 75.7141C31.0058 75.7141 30.5362 75.0249 30.5362 73.815C30.5362 72.6153 31.0161 71.9159 31.8278 71.9159C32.6395 71.9159 33.1194 72.6153 33.1194 73.815C33.1194 75.0249 32.6446 75.7141 31.8278 75.7141ZM31.8278 75.3057C32.3587 75.3057 32.6701 74.7697 32.6701 73.815C32.6701 72.8603 32.3587 72.3141 31.8278 72.3141C31.2968 72.3141 30.9803 72.8603 30.9803 73.815C30.9803 74.7697 31.2917 75.3057 31.8278 75.3057ZM35.2987 73.6159V74.0192H33.6804V73.6159H35.2987ZM37.1513 75.7141C36.3293 75.7141 35.8597 75.0249 35.8597 73.815C35.8597 72.6153 36.3396 71.9159 37.1513 71.9159C37.963 71.9159 38.4429 72.6153 38.4429 73.815C38.4429 75.0249 37.9681 75.7141 37.1513 75.7141ZM37.1513 75.3057C37.6822 75.3057 37.9936 74.7697 37.9936 73.815C37.9936 72.8603 37.6822 72.3141 37.1513 72.3141C36.6203 72.3141 36.3038 72.8603 36.3038 73.815C36.3038 74.7697 36.6152 75.3057 37.1513 75.3057ZM40.2393 75.7141C39.4174 75.7141 38.9477 75.0249 38.9477 73.815C38.9477 72.6153 39.4276 71.9159 40.2393 71.9159C41.051 71.9159 41.5309 72.6153 41.5309 73.815C41.5309 75.0249 41.0561 75.7141 40.2393 75.7141ZM40.2393 75.3057C40.7703 75.3057 41.0817 74.7697 41.0817 73.815C41.0817 72.8603 40.7703 72.3141 40.2393 72.3141C39.7084 72.3141 39.3918 72.8603 39.3918 73.815C39.3918 74.7697 39.7033 75.3057 40.2393 75.3057ZM43.3273 75.7141C42.5054 75.7141 42.0357 75.0249 42.0357 73.815C42.0357 72.6153 42.5156 71.9159 43.3273 71.9159C44.1391 71.9159 44.619 72.6153 44.619 73.815C44.619 75.0249 44.1442 75.7141 43.3273 75.7141ZM43.3273 75.3057C43.8583 75.3057 44.1697 74.7697 44.1697 73.815C44.1697 72.8603 43.8583 72.3141 43.3273 72.3141C42.7964 72.3141 42.4799 72.8603 42.4799 73.815C42.4799 74.7697 42.7913 75.3057 43.3273 75.3057Z" fill="#2A2A2A"/>
<path d="M11.327 83.2968C11.1826 83.2968 11.0441 83.2395 10.9419 83.1373C10.8398 83.0352 10.7824 82.8967 10.7824 82.7523C10.7824 82.6079 10.8398 82.4694 10.9419 82.3672C11.0441 82.2651 11.1826 82.2077 11.327 82.2077C11.4714 82.2077 11.6099 82.2651 11.7121 82.3672C11.8142 82.4694 11.8716 82.6079 11.8716 82.7523C11.8716 82.8238 11.8575 82.8946 11.8301 82.9607C11.8027 83.0268 11.7626 83.0868 11.7121 83.1373C11.6615 83.1879 11.6015 83.228 11.5354 83.2554C11.4693 83.2828 11.3985 83.2968 11.327 83.2968ZM11.327 81.2275C10.9226 81.2275 10.5348 81.3882 10.2488 81.6741C9.96289 81.9601 9.80225 82.3479 9.80225 82.7523C9.80225 83.8959 11.327 85.584 11.327 85.584C11.327 85.584 12.8518 83.8959 12.8518 82.7523C12.8518 82.3479 12.6911 81.9601 12.4052 81.6741C12.1192 81.3882 11.7314 81.2275 11.327 81.2275Z" fill="#C4C4C4"/>
<path d="M17.4648 82.5009C17.4648 83.3228 17.9907 84.1499 18.6492 84.4511L18.4093 84.7778C17.8937 84.5124 17.4674 83.9686 17.2657 83.3228C17.0641 84.0018 16.6378 84.5838 16.1222 84.8595L15.8618 84.5379C16.5255 84.2111 17.0564 83.3382 17.0564 82.5009V81.6739H17.4648V82.5009ZM19.6294 81.2808V85.8295H19.2312V83.1595H18.154V82.8327H19.2312V81.2808H19.6294ZM22.4265 81.3369C23.4373 81.3369 24.0295 81.6177 24.0295 82.1231C24.0295 82.6336 23.4373 82.9093 22.4265 82.9144C21.4156 82.9093 20.8183 82.6336 20.8183 82.1231C20.8183 81.6177 21.4156 81.3369 22.4265 81.3369ZM22.4265 81.6432C21.6709 81.6483 21.2318 81.8219 21.2369 82.1231C21.2318 82.4345 21.6709 82.603 22.4265 82.6081C23.1769 82.603 23.6211 82.4345 23.6211 82.1231C23.6211 81.8219 23.1769 81.6483 22.4265 81.6432ZM24.4941 83.2156V83.5373H22.6205V83.9661H23.9631V84.982H21.2676V85.4517H24.101V85.7682H20.8694V84.6859H23.57V84.2724H20.8592V83.9661H22.2223V83.5373H20.3589V83.2156H24.4941ZM28.986 83.6853V84.0069H24.8457V83.6853H28.986ZM28.45 84.4511V85.8193H28.0416V84.7727H25.3103V84.4511H28.45ZM28.4959 82.9348V83.2463H25.3971V81.4033H28.4704V81.7249H25.8004V82.1589H28.3479V82.4703H25.8004V82.9348H28.4959ZM33.1002 81.2808V83.6547H32.702V83.0727H31.6299V83.4709H29.5725V81.4952H29.9707V82.1486H31.2368V81.4952H31.6299V81.9342H32.702V81.2808H33.1002ZM33.1002 83.8742V84.9412H30.568V85.4364H33.2738V85.758H30.1698V84.6349H32.702V84.1958H30.1596V83.8742H33.1002ZM29.9707 83.1442H31.2368V82.4652H29.9707V83.1442ZM31.6299 82.7562H32.702V82.2456H31.6299V82.7562ZM35.448 82.5009C35.4429 83.3279 36.0096 84.1652 36.6783 84.4664L36.4333 84.7829C35.9177 84.5302 35.471 83.9967 35.254 83.3484C35.0421 84.035 34.5954 84.6068 34.0645 84.8748L33.8092 84.5379C34.4831 84.2265 35.0447 83.3637 35.0498 82.5009V81.6739H35.448V82.5009ZM37.5768 81.2808V85.8295H37.1735V81.2808H37.5768ZM40.9961 81.6943C40.9961 82.0338 41.2361 82.4805 41.6802 82.7306C42.1218 82.4856 42.3592 82.0516 42.3592 81.6943V81.3778H42.7574V81.6943C42.7574 82.1282 43.0586 82.5877 43.6253 82.7766L43.4313 83.0829C42.9948 82.9221 42.7012 82.6158 42.5583 82.2559C42.4102 82.6209 42.1218 82.9604 41.6802 83.1288C41.2309 82.9553 40.9425 82.603 40.797 82.2354C40.649 82.5877 40.358 82.9068 39.9291 83.0727L39.7249 82.7766C40.2865 82.5724 40.5979 82.0772 40.5979 81.6943V81.3778H40.9961V81.6943ZM43.7631 83.4045V83.7364H41.8742V84.3745H43.2271V85.8193H42.8238V84.7012H40.0619V84.3745H41.4811V83.7364H39.6126V83.4045H43.7631ZM45.4881 81.6943C45.4881 82.0338 45.728 82.4805 46.1722 82.7306C46.6138 82.4856 46.8512 82.0516 46.8512 81.6943V81.3778H47.2494V81.6943C47.2494 82.1282 47.5506 82.5877 48.1172 82.7766L47.9232 83.0829C47.4868 82.9221 47.1932 82.6158 47.0503 82.2559C46.9022 82.6209 46.6138 82.9604 46.1722 83.1288C45.7229 82.9553 45.4345 82.603 45.289 82.2354C45.1409 82.5877 44.8499 82.9068 44.4211 83.0727L44.2169 82.7766C44.7784 82.5724 45.0899 82.0772 45.0899 81.6943V81.3778H45.4881V81.6943ZM48.2551 83.4045V83.7364H46.3662V84.3745H47.719V85.8193H47.3157V84.7012H44.5538V84.3745H45.9731V83.7364H44.1046V83.4045H48.2551ZM52.2161 81.7453V82.3069C52.2161 82.9757 52.2161 83.5934 52.0272 84.5124L51.6239 84.4766C51.7235 84.0401 51.7745 83.6623 51.8026 83.3075L49.0305 83.4607L48.9743 83.1288L51.8179 83.0114C51.8256 82.7715 51.8256 82.5392 51.8281 82.3069V82.0823H49.0968V81.7453H52.2161ZM52.7317 84.8442V85.1811H48.5965V84.8442H52.7317ZM56.6774 81.5769V81.9751C56.6774 82.4065 56.6774 82.8736 56.5498 83.527H57.2237V83.8589H55.3501V85.8295H54.9468V83.8589H53.0885V83.527H56.1414C56.2792 82.8736 56.2792 82.3962 56.2792 81.9751V81.9087H53.6092V81.5769H56.6774ZM62.7208 81.2808V84.155H62.3379V82.8532H61.7304V83.9916H61.3526V81.3727H61.7304V82.5213H62.3379V81.2808H62.7208ZM61.1688 81.827V82.1486H58.8408V81.827H59.8108V81.3165H60.209V81.827H61.1688ZM60.0099 82.3937C60.5868 82.3937 60.9799 82.6949 60.985 83.1697C60.9799 83.6343 60.5868 83.9406 60.0099 83.9406C59.4381 83.9406 59.0348 83.6343 59.0399 83.1697C59.0348 82.6949 59.4381 82.3937 60.0099 82.3937ZM60.0099 82.6898C59.6474 82.6898 59.3973 82.8838 59.3973 83.1697C59.3973 83.4505 59.6474 83.6394 60.0099 83.6394C60.3724 83.6394 60.6225 83.4505 60.6225 83.1697C60.6225 82.8838 60.3724 82.6898 60.0099 82.6898ZM61.2198 84.2316C62.1745 84.2316 62.7463 84.5175 62.7463 85.028C62.7463 85.5232 62.1745 85.8091 61.2198 85.8091C60.2652 85.8091 59.6934 85.5232 59.6985 85.028C59.6934 84.5175 60.2652 84.2316 61.2198 84.2316ZM61.2198 84.5481C60.5153 84.543 60.0916 84.7166 60.0967 85.028C60.0916 85.3241 60.5153 85.4977 61.2198 85.4977C61.9244 85.4977 62.343 85.3241 62.3481 85.028C62.343 84.7166 61.9244 84.543 61.2198 84.5481ZM67.4935 83.6292V83.961H63.3583V83.6292H65.2268V83.0829H63.9097V81.388H64.3079V81.9138H66.5542V81.388H66.9524V83.0829H65.625V83.6292H67.4935ZM66.983 84.4102V85.8193H66.5797V84.7319H63.8178V84.4102H66.983ZM64.3079 82.7613H66.5542V82.2201H64.3079V82.7613ZM70.117 82.067V82.3937H67.8401V82.067H68.7845V81.4186H69.1827V82.067H70.117ZM68.9785 82.7C69.5503 82.7 69.9587 83.1288 69.9638 83.7313C69.9587 84.3388 69.5503 84.7727 68.9785 84.7727C68.4118 84.7727 68.0034 84.3388 68.0034 83.7313C68.0034 83.1288 68.4118 82.7 68.9785 82.7ZM68.9785 83.0369C68.6211 83.0421 68.3608 83.3331 68.3608 83.7313C68.3608 84.1346 68.6211 84.4256 68.9785 84.4205C69.341 84.4256 69.6065 84.1346 69.6065 83.7313C69.6065 83.3331 69.341 83.0421 68.9785 83.0369ZM71.7149 81.2808V85.8193H71.332V83.527H70.7296V85.5947H70.3518V81.3931H70.7296V83.1952H71.332V81.2808H71.7149ZM76.4825 83.527V83.8487H72.3422V83.527H74.2158V82.9961H72.8681V81.4952H75.9669V81.8168H73.2612V82.6694H75.9975V82.9961H74.6038V83.527H76.4825ZM74.4098 84.1805C75.3849 84.1805 75.9669 84.4766 75.972 84.9973C75.9669 85.5232 75.3849 85.8142 74.4098 85.8193C73.4296 85.8142 72.8425 85.5232 72.8425 84.9973C72.8425 84.4766 73.4296 84.1805 74.4098 84.1805ZM74.4098 84.497C73.6798 84.497 73.2458 84.6859 73.251 84.9973C73.2458 85.3139 73.6798 85.4977 74.4098 85.4977C75.1297 85.4977 75.5687 85.3139 75.5687 84.9973C75.5687 84.6859 75.1297 84.497 74.4098 84.497Z" fill="#2A2A2A"/>
<rect x="0.217822" y="98.9502" width="175.564" height="44.3168" rx="5.0099" fill="white"/>
<rect x="0.217822" y="98.9502" width="175.564" height="44.3168" rx="5.0099" stroke="#F7F7F7" stroke-width="0.435644"/>
<path d="M10.6256 107.502C11.1225 107.502 11.5514 107.686 11.8441 107.992H13.3144V107.155H14.0699V110.776H13.3144V109.993H11.8441C11.5514 110.3 11.1191 110.48 10.6256 110.477C9.6999 110.484 8.99878 109.857 8.99878 108.993C8.99878 108.122 9.6999 107.502 10.6256 107.502ZM10.6256 108.149C10.0947 108.149 9.72032 108.476 9.72032 108.993C9.72032 109.497 10.0947 109.837 10.6256 109.837C11.1362 109.837 11.5105 109.497 11.5173 108.993C11.5105 108.476 11.1362 108.149 10.6256 108.149ZM11.987 110.906C13.2803 110.906 14.0904 111.348 14.0904 112.104C14.0904 112.859 13.2803 113.302 11.987 113.302C10.7005 113.302 9.89049 112.859 9.8973 112.104C9.89049 111.348 10.7005 110.906 11.987 110.906ZM11.987 111.484C11.1294 111.484 10.6324 111.702 10.6393 112.104C10.6324 112.492 11.1294 112.709 11.987 112.709C12.8583 112.709 13.3484 112.492 13.3484 112.104C13.3484 111.702 12.8583 111.484 11.987 111.484ZM12.1844 108.598C12.2185 108.724 12.2389 108.853 12.2389 108.993C12.2389 109.129 12.2185 109.258 12.1912 109.381H13.3144V108.598H12.1844ZM20.4175 110.606V111.219H19.0494V113.308H18.2802V111.219H16.9188V113.308H16.1428V111.219H14.795V110.606H20.4175ZM17.5927 107.373C18.8996 107.38 19.8117 107.911 19.8117 108.748C19.8117 109.571 18.8996 110.096 17.5927 110.096C16.2789 110.096 15.3804 109.571 15.3872 108.748C15.3804 107.911 16.2789 107.38 17.5927 107.373ZM17.5927 107.985C16.7214 107.985 16.1564 108.265 16.1632 108.748C16.1564 109.217 16.7214 109.497 17.5927 109.497C18.464 109.497 19.0289 109.217 19.0289 108.748C19.0289 108.265 18.464 107.985 17.5927 107.985ZM23.8654 107.999C23.8654 108.952 24.7979 109.905 26.0845 110.13L25.7441 110.763C24.7129 110.545 23.8688 109.922 23.4706 109.095C23.0622 109.915 22.2181 110.541 21.1903 110.763L20.8567 110.13C22.1296 109.898 23.0554 108.945 23.0622 107.999V107.543H23.8654V107.999ZM26.3091 111.899V112.526H20.6866V111.899H26.3091ZM29.2192 107.666V108.265H27.5311V108.911H29.1579V109.503H27.5311V110.184C28.2832 110.177 28.804 110.15 29.403 110.041L29.4846 110.647C28.7631 110.776 28.1641 110.797 27.2111 110.797H26.8027V107.666H29.2192ZM31.833 107.162V111.756H31.1115V109.51H30.4717V111.607H29.7637V107.278H30.4717V108.898H31.1115V107.162H31.833ZM32.0032 112.573V113.186H27.7148V111.219H28.4704V112.573H32.0032ZM37.2753 107.155V109.49H38.2215V110.109H37.2753V113.315H36.5197V107.155H37.2753ZM35.5872 107.74V108.353H33.4634V111.178C34.4198 111.178 35.1754 111.13 36.0228 110.98L36.1113 111.62C35.1584 111.784 34.3279 111.811 33.2184 111.811H32.7079V107.74H35.5872ZM43.337 110.041V110.647H39.0214V107.693H43.2894V108.305H39.7702V110.041H43.337ZM43.9633 111.899V112.526H38.3407V111.899H43.9633ZM47.4215 107.604C48.2553 107.604 48.8713 108.299 48.9802 109.422H50.151V107.155H50.8998V113.315H50.151V110.034H48.987C48.9054 111.222 48.2791 111.954 47.4215 111.954C46.4957 111.954 45.8422 111.117 45.8422 109.776C45.8422 108.448 46.4957 107.604 47.4215 107.604ZM47.4215 108.285C46.9109 108.285 46.5638 108.836 46.5706 109.776C46.5638 110.722 46.9109 111.273 47.4215 111.273C47.932 111.273 48.2723 110.722 48.2791 109.776C48.2723 108.836 47.932 108.285 47.4215 108.285ZM55.2802 107.747V108.346H51.6317V107.747H53.0816V107.128H53.8371V107.747H55.2802ZM53.4559 108.584C54.3476 108.584 54.9535 109.034 54.9603 109.708C54.9535 110.381 54.3476 110.831 53.4559 110.831C52.5642 110.831 51.9448 110.381 51.9448 109.708C51.9448 109.034 52.5642 108.584 53.4559 108.584ZM53.4559 109.156C52.9863 109.156 52.6799 109.36 52.6799 109.708C52.6799 110.055 52.9863 110.252 53.4559 110.245C53.9256 110.252 54.2387 110.055 54.2387 109.708C54.2387 109.36 53.9256 109.156 53.4559 109.156ZM56.4782 107.155V108.789H57.3359V109.408H56.4782V111.008H55.7226V107.155H56.4782ZM56.4782 111.294V113.308H55.7226V111.899H52.3804V111.294H56.4782ZM62.6693 107.162V111.818H61.9069V111.28H60.702V110.749H61.9069V107.162H62.6693ZM62.8122 112.573V113.186H58.2992V111.368H59.0548V112.573H62.8122ZM57.4824 109.925C58.6191 109.919 60.1439 109.905 61.4508 109.742L61.4917 110.286C60.9845 110.371 60.4604 110.429 59.9397 110.463V111.648H59.1841V110.504C58.6089 110.528 58.061 110.531 57.5777 110.531L57.4824 109.925ZM59.4904 107.386C60.3889 107.386 61.0152 107.829 61.022 108.476C61.0152 109.136 60.3889 109.558 59.4904 109.558C58.5783 109.558 57.952 109.136 57.952 108.476C57.952 107.829 58.5783 107.386 59.4904 107.386ZM59.4904 107.945C59.0003 107.945 58.6668 108.142 58.6668 108.476C58.6668 108.809 59.0003 109.006 59.4904 109.006C59.9601 109.006 60.2936 108.809 60.3004 108.476C60.2936 108.142 59.9601 107.945 59.4904 107.945Z" fill="#171717"/>
<rect x="123.723" y="105.703" width="43.5644" height="12.198" rx="3.48515" fill="#FF7049"/>
<path d="M130.069 113.015V114.095H127.465V113.015H130.069ZM127.797 113.274V113.836H129.742V113.274H127.797ZM130.29 110.683V110.943H127.223V110.683H128.601V110.309H128.933V110.683H130.29ZM128.767 111.096C129.55 111.1 129.993 111.279 129.993 111.632C129.993 111.964 129.612 112.14 128.933 112.164V112.457H130.49V112.725H127.044V112.457H128.601V112.164C127.921 112.14 127.538 111.964 127.538 111.632C127.538 111.279 127.984 111.1 128.767 111.096ZM128.767 111.33C128.21 111.334 127.891 111.436 127.895 111.632C127.891 111.823 128.21 111.934 128.767 111.934C129.32 111.934 129.639 111.823 129.639 111.632C129.639 111.436 129.32 111.334 128.767 111.33ZM134.042 110.364V114.146H133.719V110.364H134.042ZM133.302 110.458V113.946H132.983V112.104H132.455V111.802H132.983V110.458H133.302ZM132.566 110.849V111.126H132.247V112.874C132.389 112.866 132.525 112.853 132.651 112.836L132.672 113.083C132.077 113.193 131.281 113.21 130.788 113.21L130.745 112.925L131.145 112.921V111.126H130.826V110.849H132.566ZM131.451 112.917C131.609 112.913 131.775 112.906 131.936 112.896V111.126H131.451V112.917ZM137.649 110.364V114.155H137.313V110.364H137.649ZM135.637 110.658C136.199 110.662 136.603 111.173 136.603 111.977C136.603 112.781 136.199 113.291 135.637 113.291C135.071 113.291 134.671 112.781 134.671 111.977C134.671 111.173 135.071 110.662 135.637 110.658ZM135.637 110.956C135.258 110.96 134.995 111.36 134.995 111.977C134.995 112.594 135.258 112.993 135.637 112.993C136.016 112.993 136.279 112.594 136.279 111.977C136.279 111.36 136.016 110.96 135.637 110.956ZM139.627 111.526C139.627 112.168 140.095 112.819 140.652 113.062L140.465 113.325C140.023 113.123 139.64 112.687 139.465 112.164C139.287 112.719 138.906 113.202 138.474 113.419L138.274 113.155C138.814 112.896 139.287 112.181 139.291 111.526V111.032H138.398V110.756H140.529V111.032H139.627V111.526ZM141.393 110.364V114.146H141.057V110.364H141.393ZM146.016 110.364V111.853H146.65V112.143H146.016V114.146H145.684V110.364H146.016ZM143.578 110.688V111.687H144.684V110.688H145.016V113.24H143.246V110.688H143.578ZM143.578 112.959H144.684V111.955H143.578V112.959ZM150.295 113.398V113.678H146.832V113.398H148.389V112.683H147.266V111.517H149.53V110.922H147.258V110.645H149.857V111.789H147.598V112.406H149.947V112.683H148.717V113.398H150.295ZM153.503 110.364V111.904H154.115V112.185H153.503V114.146H153.171V110.364H153.503ZM152.524 110.773C152.524 111.845 152.022 112.819 150.788 113.427L150.601 113.164C151.58 112.676 152.111 111.949 152.188 111.053H150.776V110.773H152.524ZM157.446 110.364V114.146H157.11V110.364H157.446ZM156.327 110.777C156.323 111.866 155.816 112.828 154.549 113.436L154.366 113.164C155.389 112.679 155.91 111.953 155.987 111.049H154.54V110.777H156.327Z" fill="white"/>
<path d="M160.198 111.801H162.376" stroke="white" stroke-width="0.435644" stroke-linecap="square" stroke-linejoin="round"/>
<path d="M161.505 110.712L162.594 111.802L161.505 112.891" stroke="white" stroke-width="0.435644" stroke-linecap="square"/>
<g clip-path="url(#clip3_1786_7262)">
<path d="M12.7051 125.059C12.5057 125.059 12.2258 124.987 11.8065 124.753C11.2967 124.467 10.9024 124.203 10.3954 123.697C9.90649 123.209 9.66859 122.892 9.33563 122.286C8.95948 121.602 9.0236 121.244 9.09527 121.09C9.18063 120.907 9.30663 120.798 9.46948 120.689C9.56199 120.628 9.65987 120.576 9.76191 120.534C9.77212 120.529 9.78162 120.525 9.79009 120.521C9.84063 120.499 9.91721 120.464 10.0142 120.501C10.0789 120.525 10.1367 120.575 10.2272 120.664C10.4127 120.847 10.6662 121.255 10.7598 121.455C10.8226 121.59 10.8641 121.679 10.8642 121.779C10.8642 121.896 10.8054 121.986 10.734 122.083C10.7207 122.101 10.7074 122.119 10.6945 122.136C10.6168 122.238 10.5998 122.267 10.611 122.32C10.6338 122.426 10.8036 122.741 11.0826 123.02C11.3617 123.298 11.6678 123.457 11.7741 123.48C11.829 123.492 11.8591 123.474 11.9645 123.393C11.9796 123.382 11.9951 123.37 12.0114 123.358C12.1202 123.277 12.2062 123.22 12.3203 123.22H12.3209C12.4203 123.22 12.5053 123.263 12.6462 123.334C12.83 123.426 13.2498 123.677 13.4339 123.862C13.5234 123.953 13.5733 124.01 13.5978 124.075C13.6345 124.172 13.5999 124.249 13.5773 124.3C13.5736 124.308 13.5694 124.317 13.565 124.328C13.522 124.43 13.4697 124.527 13.4089 124.619C13.3003 124.782 13.1904 124.908 13.0068 124.993C12.9125 125.038 12.8093 125.06 12.7051 125.059Z" fill="#C4C4C4"/>
</g>
<path d="M17.2402 124.823C16.4183 124.823 15.9486 124.134 15.9486 122.924C15.9486 121.724 16.4285 121.025 17.2402 121.025C18.0519 121.025 18.5318 121.724 18.5318 122.924C18.5318 124.134 18.057 124.823 17.2402 124.823ZM17.2402 124.415C17.7711 124.415 18.0825 123.879 18.0825 122.924C18.0825 121.969 17.7711 121.423 17.2402 121.423C16.7093 121.423 16.3927 121.969 16.3927 122.924C16.3927 123.879 16.7041 124.415 17.2402 124.415ZM20.3282 124.823C19.5063 124.823 19.0366 124.134 19.0366 122.924C19.0366 121.724 19.5165 121.025 20.3282 121.025C21.1399 121.025 21.6198 121.724 21.6198 122.924C21.6198 124.134 21.1451 124.823 20.3282 124.823ZM20.3282 124.415C20.8592 124.415 21.1706 123.879 21.1706 122.924C21.1706 121.969 20.8592 121.423 20.3282 121.423C19.7973 121.423 19.4808 121.969 19.4808 122.924C19.4808 123.879 19.7922 124.415 20.3282 124.415ZM23.7991 122.725V123.128H22.1808V122.725H23.7991ZM25.6517 124.823C24.8298 124.823 24.3601 124.134 24.3601 122.924C24.3601 121.724 24.84 121.025 25.6517 121.025C26.4634 121.025 26.9433 121.724 26.9433 122.924C26.9433 124.134 26.4686 124.823 25.6517 124.823ZM25.6517 124.415C26.1827 124.415 26.4941 123.879 26.4941 122.924C26.4941 121.969 26.1827 121.423 25.6517 121.423C25.1208 121.423 24.8043 121.969 24.8043 122.924C24.8043 123.879 25.1157 124.415 25.6517 124.415ZM28.7398 124.823C27.9178 124.823 27.4481 124.134 27.4481 122.924C27.4481 121.724 27.928 121.025 28.7398 121.025C29.5515 121.025 30.0314 121.724 30.0314 122.924C30.0314 124.134 29.5566 124.823 28.7398 124.823ZM28.7398 124.415C29.2707 124.415 29.5821 123.879 29.5821 122.924C29.5821 121.969 29.2707 121.423 28.7398 121.423C28.2088 121.423 27.8923 121.969 27.8923 122.924C27.8923 123.879 28.2037 124.415 28.7398 124.415ZM31.8278 124.823C31.0058 124.823 30.5362 124.134 30.5362 122.924C30.5362 121.724 31.0161 121.025 31.8278 121.025C32.6395 121.025 33.1194 121.724 33.1194 122.924C33.1194 124.134 32.6446 124.823 31.8278 124.823ZM31.8278 124.415C32.3587 124.415 32.6701 123.879 32.6701 122.924C32.6701 121.969 32.3587 121.423 31.8278 121.423C31.2968 121.423 30.9803 121.969 30.9803 122.924C30.9803 123.879 31.2917 124.415 31.8278 124.415ZM35.2987 122.725V123.128H33.6804V122.725H35.2987ZM37.1513 124.823C36.3293 124.823 35.8597 124.134 35.8597 122.924C35.8597 121.724 36.3396 121.025 37.1513 121.025C37.963 121.025 38.4429 121.724 38.4429 122.924C38.4429 124.134 37.9681 124.823 37.1513 124.823ZM37.1513 124.415C37.6822 124.415 37.9936 123.879 37.9936 122.924C37.9936 121.969 37.6822 121.423 37.1513 121.423C36.6203 121.423 36.3038 121.969 36.3038 122.924C36.3038 123.879 36.6152 124.415 37.1513 124.415ZM40.2393 124.823C39.4174 124.823 38.9477 124.134 38.9477 122.924C38.9477 121.724 39.4276 121.025 40.2393 121.025C41.051 121.025 41.5309 121.724 41.5309 122.924C41.5309 124.134 41.0561 124.823 40.2393 124.823ZM40.2393 124.415C40.7703 124.415 41.0817 123.879 41.0817 122.924C41.0817 121.969 40.7703 121.423 40.2393 121.423C39.7084 121.423 39.3918 121.969 39.3918 122.924C39.3918 123.879 39.7033 124.415 40.2393 124.415ZM43.3273 124.823C42.5054 124.823 42.0357 124.134 42.0357 122.924C42.0357 121.724 42.5156 121.025 43.3273 121.025C44.1391 121.025 44.619 121.724 44.619 122.924C44.619 124.134 44.1442 124.823 43.3273 124.823ZM43.3273 124.415C43.8583 124.415 44.1697 123.879 44.1697 122.924C44.1697 121.969 43.8583 121.423 43.3273 121.423C42.7964 121.423 42.4799 121.969 42.4799 122.924C42.4799 123.879 42.7913 124.415 43.3273 124.415Z" fill="#2A2A2A"/>
<path d="M11.327 132.406C11.1826 132.406 11.0441 132.348 10.9419 132.246C10.8398 132.144 10.7824 132.006 10.7824 131.861C10.7824 131.717 10.8398 131.578 10.9419 131.476C11.0441 131.374 11.1826 131.317 11.327 131.317C11.4714 131.317 11.6099 131.374 11.7121 131.476C11.8142 131.578 11.8716 131.717 11.8716 131.861C11.8716 131.933 11.8575 132.004 11.8301 132.07C11.8027 132.136 11.7626 132.196 11.7121 132.246C11.6615 132.297 11.6015 132.337 11.5354 132.364C11.4693 132.392 11.3985 132.406 11.327 132.406ZM11.327 130.336C10.9226 130.336 10.5348 130.497 10.2488 130.783C9.96289 131.069 9.80225 131.457 9.80225 131.861C9.80225 133.005 11.327 134.693 11.327 134.693C11.327 134.693 12.8518 133.005 12.8518 131.861C12.8518 131.457 12.6911 131.069 12.4052 130.783C12.1192 130.497 11.7314 130.336 11.327 130.336Z" fill="#C4C4C4"/>
<path d="M17.4648 131.61C17.4648 132.432 17.9907 133.259 18.6492 133.56L18.4093 133.887C17.8937 133.621 17.4674 133.078 17.2657 132.432C17.0641 133.111 16.6378 133.693 16.1222 133.968L15.8618 133.647C16.5255 133.32 17.0564 132.447 17.0564 131.61V130.783H17.4648V131.61ZM19.6294 130.39V134.938H19.2312V132.268H18.154V131.942H19.2312V130.39H19.6294ZM22.4265 130.446C23.4373 130.446 24.0295 130.727 24.0295 131.232C24.0295 131.743 23.4373 132.018 22.4265 132.023C21.4156 132.018 20.8183 131.743 20.8183 131.232C20.8183 130.727 21.4156 130.446 22.4265 130.446ZM22.4265 130.752C21.6709 130.757 21.2318 130.931 21.2369 131.232C21.2318 131.543 21.6709 131.712 22.4265 131.717C23.1769 131.712 23.6211 131.543 23.6211 131.232C23.6211 130.931 23.1769 130.757 22.4265 130.752ZM24.4941 132.325V132.646H22.6205V133.075H23.9631V134.091H21.2676V134.561H24.101V134.877H20.8694V133.795H23.57V133.381H20.8592V133.075H22.2223V132.646H20.3589V132.325H24.4941ZM28.986 132.794V133.116H24.8457V132.794H28.986ZM28.45 133.56V134.928H28.0416V133.882H25.3103V133.56H28.45ZM28.4959 132.044V132.355H25.3971V130.512H28.4704V130.834H25.8004V131.268H28.3479V131.579H25.8004V132.044H28.4959ZM33.1002 130.39V132.764H32.702V132.182H31.6299V132.58H29.5725V130.604H29.9707V131.258H31.2368V130.604H31.6299V131.043H32.702V130.39H33.1002ZM33.1002 132.983V134.05H30.568V134.545H33.2738V134.867H30.1698V133.744H32.702V133.305H30.1596V132.983H33.1002ZM29.9707 132.253H31.2368V131.574H29.9707V132.253ZM31.6299 131.865H32.702V131.355H31.6299V131.865ZM35.448 131.61C35.4429 132.437 36.0096 133.274 36.6783 133.575L36.4333 133.892C35.9177 133.639 35.471 133.106 35.254 132.457C35.0421 133.144 34.5954 133.716 34.0645 133.984L33.8092 133.647C34.4831 133.335 35.0447 132.473 35.0498 131.61V130.783H35.448V131.61ZM37.5768 130.39V134.938H37.1735V130.39H37.5768ZM40.9961 130.803C40.9961 131.143 41.2361 131.589 41.6802 131.84C42.1218 131.594 42.3592 131.161 42.3592 130.803V130.487H42.7574V130.803C42.7574 131.237 43.0586 131.697 43.6253 131.885L43.4313 132.192C42.9948 132.031 42.7012 131.725 42.5583 131.365C42.4102 131.73 42.1218 132.069 41.6802 132.238C41.2309 132.064 40.9425 131.712 40.797 131.344C40.649 131.697 40.358 132.016 39.9291 132.182L39.7249 131.885C40.2865 131.681 40.5979 131.186 40.5979 130.803V130.487H40.9961V130.803ZM43.7631 132.513V132.845H41.8742V133.483H43.2271V134.928H42.8238V133.81H40.0619V133.483H41.4811V132.845H39.6126V132.513H43.7631ZM45.4881 130.803C45.4881 131.143 45.728 131.589 46.1722 131.84C46.6138 131.594 46.8512 131.161 46.8512 130.803V130.487H47.2494V130.803C47.2494 131.237 47.5506 131.697 48.1172 131.885L47.9232 132.192C47.4868 132.031 47.1932 131.725 47.0503 131.365C46.9022 131.73 46.6138 132.069 46.1722 132.238C45.7229 132.064 45.4345 131.712 45.289 131.344C45.1409 131.697 44.8499 132.016 44.4211 132.182L44.2169 131.885C44.7784 131.681 45.0899 131.186 45.0899 130.803V130.487H45.4881V130.803ZM48.2551 132.513V132.845H46.3662V133.483H47.719V134.928H47.3157V133.81H44.5538V133.483H45.9731V132.845H44.1046V132.513H48.2551ZM52.2161 130.854V131.416C52.2161 132.085 52.2161 132.702 52.0272 133.621L51.6239 133.586C51.7235 133.149 51.7745 132.771 51.8026 132.416L49.0305 132.57L48.9743 132.238L51.8179 132.12C51.8256 131.88 51.8256 131.648 51.8281 131.416V131.191H49.0968V130.854H52.2161ZM52.7317 133.953V134.29H48.5965V133.953H52.7317ZM56.6774 130.686V131.084C56.6774 131.515 56.6774 131.982 56.5498 132.636H57.2237V132.968H55.3501V134.938H54.9468V132.968H53.0885V132.636H56.1414C56.2792 131.982 56.2792 131.505 56.2792 131.084V131.018H53.6092V130.686H56.6774ZM62.7208 130.39V133.264H62.3379V131.962H61.7304V133.101H61.3526V130.482H61.7304V131.63H62.3379V130.39H62.7208ZM61.1688 130.936V131.258H58.8408V130.936H59.8108V130.425H60.209V130.936H61.1688ZM60.0099 131.503C60.5868 131.503 60.9799 131.804 60.985 132.279C60.9799 132.743 60.5868 133.049 60.0099 133.049C59.4381 133.049 59.0348 132.743 59.0399 132.279C59.0348 131.804 59.4381 131.503 60.0099 131.503ZM60.0099 131.799C59.6474 131.799 59.3973 131.993 59.3973 132.279C59.3973 132.559 59.6474 132.748 60.0099 132.748C60.3724 132.748 60.6225 132.559 60.6225 132.279C60.6225 131.993 60.3724 131.799 60.0099 131.799ZM61.2198 133.34C62.1745 133.34 62.7463 133.626 62.7463 134.137C62.7463 134.632 62.1745 134.918 61.2198 134.918C60.2652 134.918 59.6934 134.632 59.6985 134.137C59.6934 133.626 60.2652 133.34 61.2198 133.34ZM61.2198 133.657C60.5153 133.652 60.0916 133.825 60.0967 134.137C60.0916 134.433 60.5153 134.607 61.2198 134.607C61.9244 134.607 62.343 134.433 62.3481 134.137C62.343 133.825 61.9244 133.652 61.2198 133.657ZM67.4935 132.738V133.07H63.3583V132.738H65.2268V132.192H63.9097V130.497H64.3079V131.023H66.5542V130.497H66.9524V132.192H65.625V132.738H67.4935ZM66.983 133.519V134.928H66.5797V133.841H63.8178V133.519H66.983ZM64.3079 131.87H66.5542V131.329H64.3079V131.87ZM70.117 131.176V131.503H67.8401V131.176H68.7845V130.527H69.1827V131.176H70.117ZM68.9785 131.809C69.5503 131.809 69.9587 132.238 69.9638 132.84C69.9587 133.448 69.5503 133.882 68.9785 133.882C68.4118 133.882 68.0034 133.448 68.0034 132.84C68.0034 132.238 68.4118 131.809 68.9785 131.809ZM68.9785 132.146C68.6211 132.151 68.3608 132.442 68.3608 132.84C68.3608 133.243 68.6211 133.534 68.9785 133.529C69.341 133.534 69.6065 133.243 69.6065 132.84C69.6065 132.442 69.341 132.151 68.9785 132.146ZM71.7149 130.39V134.928H71.332V132.636H70.7296V134.704H70.3518V130.502H70.7296V132.304H71.332V130.39H71.7149ZM76.4825 132.636V132.958H72.3422V132.636H74.2158V132.105H72.8681V130.604H75.9669V130.926H73.2612V131.778H75.9975V132.105H74.6038V132.636H76.4825ZM74.4098 133.289C75.3849 133.289 75.9669 133.586 75.972 134.106C75.9669 134.632 75.3849 134.923 74.4098 134.928C73.4296 134.923 72.8425 134.632 72.8425 134.106C72.8425 133.586 73.4296 133.289 74.4098 133.289ZM74.4098 133.606C73.6798 133.606 73.2458 133.795 73.251 134.106C73.2458 134.423 73.6798 134.607 74.4098 134.607C75.1297 134.607 75.5687 134.423 75.5687 134.106C75.5687 133.795 75.1297 133.606 74.4098 133.606Z" fill="#2A2A2A"/>
<defs>
<clipPath id="clip0_1786_7262">
<rect width="5.22772" height="5.22772" fill="white" transform="translate(8.71289 21.9404)"/>
</clipPath>
<clipPath id="clip1_1786_7262">
<rect width="5.22772" height="5.22772" fill="white" transform="translate(8.71289 31.6831)"/>
</clipPath>
<clipPath id="clip2_1786_7262">
<rect width="5.22772" height="5.22772" fill="white" transform="translate(8.71289 71.0493)"/>
</clipPath>
<clipPath id="clip3_1786_7262">
<rect width="5.22772" height="5.22772" fill="white" transform="translate(8.71289 120.158)"/>
</clipPath>
</defs>
</svg>
