<svg width="55" height="63" viewBox="0 0 55 63" fill="none" xmlns="http://www.w3.org/2000/svg">
<g clip-path="url(#clip0_987_6153)">
<path d="M45.0961 38.4894C42.7294 35.2625 38.9044 33.1178 33.6267 32.0583L34.0752 23.2827H25.1079L24.6593 31.3787C22.5155 31.4815 20.4479 31.6557 18.4564 31.907C14.4227 32.4639 11.0208 33.6347 8.25638 35.4252C5.49199 37.2158 3.42435 39.3604 2.05344 41.8563C0.682525 44.3522 -0.00292969 46.8881 -0.00292969 49.4582C-0.00292969 51.6286 0.470965 53.619 1.41593 55.4352C2.3609 57.2515 3.73181 58.7136 5.52584 59.8216C7.31987 60.9325 9.46086 61.4865 11.9516 61.4865C12.7471 61.4865 13.5962 61.4123 14.4932 61.2581C20.0219 60.5013 24.2334 58.271 27.1219 54.5643C30.0104 50.8575 31.9286 46.2313 32.8763 40.6826C35.4179 41.4394 37.2486 42.6502 38.3684 44.3151C39.4883 45.98 40.0496 47.8962 40.0496 50.0636C40.0496 51.8799 39.7394 53.7218 39.116 55.5866C38.4926 57.4542 37.7704 59.0791 36.9496 60.467C36.1287 61.8549 35.4658 62.6973 34.9694 63H45.5812C46.5262 61.0839 47.2737 58.9906 47.8238 56.7203C48.371 54.45 48.6446 52.1826 48.6446 49.9123C48.6446 45.5259 47.4599 41.7164 45.0961 38.4894ZM13.3 53.0907C11.9037 53.2935 10.8092 53.0422 10.0109 52.3339C9.21263 51.6286 8.8149 50.6434 8.8149 49.384C8.8149 48.1246 9.22674 46.9138 10.0476 45.6002C10.8684 44.2894 12.0898 43.1414 13.709 42.159C15.3281 41.1766 17.3083 40.5313 19.6496 40.2314C20.6453 40.0801 22.0896 39.9544 23.9824 39.8544C22.5861 47.8733 19.0234 52.2882 13.2972 53.0936L13.3 53.0907Z" fill="#EDEDED"/>
<path d="M54.9997 17.9568H24.6592V0H54.9997L46.732 8.97838L54.9997 17.9568Z" fill="#E4E4E4"/>
</g>
<defs>
<clipPath id="clip0_987_6153">
<rect width="55" height="63" fill="white"/>
</clipPath>
</defs>
</svg>
