<svg width="105" height="99" viewBox="0 0 105 99" fill="none" xmlns="http://www.w3.org/2000/svg">
<rect x="0.5" y="25.9812" width="59.4774" height="75.5524" transform="rotate(-15.5865 0.5 25.9812)" fill="#F6714E" fill-opacity="0.2"/>
<rect x="13.6772" y="37.3251" width="40.1874" height="2.41125" transform="rotate(-15.5865 13.6772 37.3251)" fill="#F6714E" fill-opacity="0.2"/>
<rect x="17.5649" y="51.2604" width="40.1874" height="2.41125" transform="rotate(-15.5865 17.5649 51.2604)" fill="#F6714E" fill-opacity="0.2"/>
<rect x="21.4526" y="65.1961" width="40.1874" height="2.41125" transform="rotate(-15.5865 21.4526 65.1961)" fill="#F6714E" fill-opacity="0.2"/>
<rect x="25.5557" y="79.9057" width="21.7012" height="2.41125" transform="rotate(-15.5865 25.5557 79.9057)" fill="#F6714E" fill-opacity="0.2"/>
<path fill-rule="evenodd" clip-rule="evenodd" d="M80.8856 37.0847C87.7296 43.9287 87.7296 55.025 80.8856 61.869C74.0416 68.713 62.9453 68.713 56.1013 61.869C49.2573 55.025 49.2573 43.9287 56.1013 37.0847C62.9453 30.2407 74.0416 30.2407 80.8856 37.0847ZM89.1502 64.4776C96.4178 54.4956 95.5486 40.4339 86.5425 31.4278C76.5743 21.4596 60.4126 21.4596 50.4444 31.4278C40.4762 41.396 40.4762 57.5577 50.4444 67.5259C59.4502 76.5317 73.5113 77.4012 83.4933 70.1343L97.5726 84.2137C99.1347 85.7758 101.667 85.7758 103.229 84.2137C104.792 82.6516 104.792 80.1189 103.229 78.5568L89.1502 64.4776Z" fill="#FA977C"/>
<path d="M100.127 14.8196C98.3307 16.0554 95.7331 17.2143 92.5075 16.9303C91.9843 16.8842 91.4963 16.8119 91.0429 16.7178C87.0727 20.6726 81.1923 20.1453 80.941 20.1206L81.2505 17.1068L81.0957 18.6137L81.2463 17.106C81.2883 17.11 84.9654 17.4192 87.8535 15.4584C87.0683 14.9523 86.4987 14.3874 86.0933 13.8761C84.9383 12.4179 84.3967 10.4634 84.6444 8.65016C84.8783 6.93785 86.1428 5.46411 87.865 4.89466C89.5248 4.34623 91.2189 4.75747 92.397 5.9949C93.6753 7.33718 94.2998 8.95828 94.2025 10.6836C94.1422 11.7597 93.8035 12.8479 93.1917 13.9385C97.671 14.1073 100.517 10.455 100.546 10.4174L102.928 12.2551C102.848 12.3599 101.862 13.6257 100.127 14.8196ZM88.3133 8.00724C87.9403 8.26392 87.6813 8.64333 87.6263 9.04616C87.5742 9.42502 87.4811 10.756 88.4514 11.9818C88.8647 12.5033 89.4076 12.9237 90.0757 13.2406C91.528 11.2515 91.5773 9.52537 90.2176 8.09645C89.7404 7.59513 89.1776 7.643 88.7896 7.77097C88.6174 7.82815 88.4572 7.90825 88.3133 8.00724Z" fill="#F6714E" fill-opacity="0.3"/>
<circle cx="3" cy="91" r="3" fill="#F6714E" fill-opacity="0.3"/>
</svg>
