<svg width="584" height="173" viewBox="0 0 584 173" fill="none" xmlns="http://www.w3.org/2000/svg">
<g clip-path="url(#clip0_1245_5910)">
<path d="M126.002 119.689C124.379 117.208 122.124 115.235 119.25 113.764C116.37 112.293 113.122 111.558 109.507 111.558H87.4485C83.8333 111.558 80.5857 112.293 77.7058 113.764C74.8259 115.235 72.571 117.208 70.9534 119.689C69.3296 122.171 68.5146 124.885 68.5146 127.82V128.556C68.5146 132.906 70.1997 136.509 73.5698 139.352C76.9399 142.201 81.2597 144.021 86.5294 144.818C90.8798 145.431 94.8627 145.737 98.4779 145.737C102.093 145.737 106.137 145.431 110.426 144.818C115.696 144.021 120.016 142.201 123.386 139.352C126.756 136.503 128.441 132.9 128.441 128.556V127.82C128.441 124.879 127.626 122.171 126.002 119.689ZM117.412 128.556C117.412 130.088 116.676 131.405 115.206 132.508C113.735 133.611 111.529 134.407 108.588 134.898C104.667 135.449 101.297 135.725 98.4779 135.725C95.6593 135.725 92.4117 135.449 88.3676 134.898C85.4264 134.407 83.2205 133.611 81.7499 132.508C80.2794 131.405 79.5441 130.088 79.5441 128.556V127.82C79.5441 126.105 80.261 124.652 81.7009 123.458C83.1409 122.263 85.0588 121.668 87.4485 121.668H109.507C111.897 121.668 113.809 122.269 115.255 123.458C116.695 124.652 117.412 126.111 117.412 127.82V128.556Z" fill="#00C4D3"/>
<path d="M116.125 61.9189V71.202H101.235C99.3358 68.9962 96.9583 67.2927 94.1152 66.104C91.2659 64.9091 88.1226 64.3086 84.6912 64.3086H83.7721C79.8505 64.3086 76.3088 65.1052 73.1532 66.6984C69.9975 68.2915 67.5159 70.5158 65.7083 73.365C63.9007 76.2143 63 79.5109 63 83.2425V88.0219C63 91.6984 63.9007 94.9765 65.7083 97.8564C67.5159 100.736 69.9975 102.973 73.1532 104.566C76.3088 106.159 79.8444 106.956 83.7721 106.956H84.6912C88.1838 106.956 91.3824 106.331 94.2929 105.068C97.2034 103.812 99.6054 102.023 101.511 99.6947H116.125V109.897H127.154V61.9189H116.125ZM94.4338 88.0219C94.4338 90.718 93.5637 92.8626 91.8174 94.4557C90.0711 96.0488 87.6936 96.8454 84.6973 96.8454H83.7782C80.7757 96.8454 78.4044 96.0488 76.6581 94.4557C74.9118 92.8626 74.0417 90.718 74.0417 88.0219V83.2425C74.0417 80.4851 74.9118 78.3283 76.6581 76.7658C78.4044 75.2033 80.7757 74.4189 83.7782 74.4189H84.6973C87.6998 74.4189 90.0711 75.1971 91.8174 76.7658C93.5637 78.3283 94.4338 80.4851 94.4338 83.2425V88.0219ZM116.125 88.6653H105.463V82.2314H116.125V88.6653Z" fill="#F2AD00"/>
<path d="M210.702 118.997H195.445V144.824H184.415V118.997H167.412C166.493 125.798 164.317 131.313 160.886 135.541C157.455 139.769 153.012 143.2 147.559 145.835L142.779 136.644C146.456 134.867 149.428 132.612 151.695 129.885C153.962 127.158 155.494 123.531 156.29 118.997H136.07V108.886H210.702V118.997Z" fill="#5669EF"/>
<path d="M199.305 69.2298C196.609 65.8903 192.626 63.7641 187.357 62.845C182.761 61.9259 178.104 61.4663 173.386 61.4663C168.668 61.4663 164.011 61.9259 159.416 62.845C154.146 63.7641 150.163 65.8965 147.467 69.2298C144.771 72.5693 143.423 76.7849 143.423 81.8646V82.6918C143.423 86.1844 144.189 89.4014 145.721 92.3425C147.253 95.2837 149.501 97.6244 152.473 99.3769C155.445 101.123 159.048 101.993 163.27 101.993H183.49C187.718 101.993 191.315 101.123 194.287 99.3769C197.259 97.6305 199.507 95.2898 201.039 92.3425C202.571 89.4014 203.337 86.1844 203.337 82.6918V81.8646C203.337 76.7788 201.989 72.5693 199.293 69.2298H199.305ZM192.32 82.6918C192.32 85.5717 191.597 87.8266 190.163 89.4443C188.723 91.068 186.499 91.883 183.496 91.883H163.276C160.273 91.883 158.049 91.0742 156.609 89.4443C155.169 87.8205 154.452 85.5717 154.452 82.6918V81.8646C154.452 79.046 155.004 76.932 156.107 75.5227C157.21 74.1134 159.048 73.1942 161.621 72.7653C165.727 71.9075 169.648 71.4786 173.386 71.4786C177.124 71.4786 181.045 71.9075 185.151 72.7653C187.724 73.1942 189.563 74.1134 190.666 75.5227C191.768 76.932 192.32 79.046 192.32 81.8646V82.6918Z" fill="#FF7955"/>
<path d="M287.449 126.35H212.816V136.46H287.449V126.35Z" fill="#FF7955"/>
<path d="M275.267 82.1403C272.357 78.2187 267.651 75.6145 261.162 74.3278L261.713 63.666H250.684L250.132 73.5006C247.498 73.6231 244.955 73.8376 242.504 74.144C237.54 74.818 233.362 76.2457 229.961 78.4148C226.56 80.59 224.017 83.1942 222.332 86.2273C220.647 89.2604 219.808 92.3425 219.808 95.4675C219.808 98.1023 220.39 100.523 221.554 102.729C222.718 104.934 224.403 106.711 226.609 108.059C228.815 109.407 231.45 110.081 234.514 110.081C235.494 110.081 236.536 109.99 237.639 109.806C244.44 108.887 249.618 106.178 253.172 101.675C256.725 97.1709 259.085 91.552 260.249 84.8118C263.374 85.731 265.623 87.2016 267.001 89.2236C268.38 91.2457 269.072 93.5741 269.072 96.2089C269.072 98.4148 268.686 100.651 267.92 102.918C267.154 105.186 266.266 107.165 265.255 108.85C264.244 110.535 263.429 111.558 262.822 111.926H275.874C277.038 109.597 277.957 107.054 278.631 104.297C279.305 101.54 279.642 98.7824 279.642 96.0251C279.642 90.6942 278.184 86.068 275.279 82.1464L275.267 82.1403ZM236.162 99.8793C234.446 100.124 233.098 99.818 232.118 98.9601C231.137 98.1023 230.647 96.9074 230.647 95.3756C230.647 93.8437 231.15 92.3731 232.161 90.78C233.172 89.1869 234.673 87.7898 236.664 86.5949C238.656 85.4001 241.088 84.6158 243.974 84.2543C245.2 84.0704 246.977 83.9172 249.305 83.7947C247.589 93.5373 243.208 98.8989 236.162 99.8793Z" fill="#00C4D3"/>
<path d="M330.647 64.4927H294.526V74.603H330.647V64.4927Z" fill="#F2AD00"/>
<path d="M323.38 109.346C320.377 109.836 317.467 110.081 314.648 110.081C307.295 110.081 301.995 107.906 298.747 103.555C296.725 100.982 295.714 98.0406 295.714 94.7318C295.714 93.5063 295.929 92.097 296.358 90.5038H294.52V80.3936H327.608V90.5038H309.317C308.459 90.8715 307.828 91.4536 307.43 92.2502C307.032 93.0467 306.83 93.8739 306.83 94.7318C306.83 95.9573 307.075 96.8764 307.565 97.4891C308.852 99.2048 311.241 100.063 314.734 100.063C316.756 100.063 319.054 99.8482 321.627 99.4193C324.201 98.9904 327.571 98.3163 331.738 97.3972L334.495 96.8458V107.14C330.083 108.12 326.376 108.856 323.374 109.346H323.38Z" fill="#F2AD00"/>
<path d="M352.565 144.505C347.571 145.149 342.743 145.473 338.092 145.473C332.577 145.473 327.749 144.965 323.619 143.954C319.489 142.943 316.431 141.362 314.477 139.217C312.7 137.257 311.444 135.02 310.708 132.508C309.973 129.995 309.605 127.146 309.605 123.96C309.605 121.448 309.82 118.2 310.249 114.217L321.278 115.32C320.911 118.813 320.727 121.754 320.727 124.144C320.727 128.31 321.34 131.006 322.565 132.232C323.484 133.212 325.292 133.96 327.988 134.481C330.684 135.002 333.962 135.265 337.822 135.265C342.295 135.265 347.118 134.928 352.295 134.254C357.473 133.58 362.387 132.6 367.044 131.313V141.791C362.387 142.955 357.559 143.862 352.571 144.499L352.565 144.505Z" fill="#5669EF"/>
<path d="M364.74 61.9189V118.169H353.711V92.8013H349.115V118.169H338.086V62.8381H349.115V81.7719H353.711V61.9189H364.74Z" fill="#00C4D3"/>
<path d="M396.726 130.945C386.554 130.945 379.293 125.767 374.943 115.412C373.227 111.245 372.369 106.343 372.369 100.706C372.369 93.3532 373.84 84.5909 376.781 74.4194H370.347V64.3091H414.649V74.4194H388.27C384.961 85.2037 383.307 94.0885 383.307 101.074C383.307 105.118 383.889 108.611 385.053 111.552C386.462 114.861 388.178 117.25 390.2 118.721C392.222 120.191 394.612 120.927 397.369 120.927C400.127 120.927 403.117 120.345 406.518 119.18C409.918 118.016 414.22 116.27 419.428 113.941V125.155C410.298 129.015 402.731 130.945 396.726 130.945Z" fill="#FF7955"/>
<path d="M435.972 61.9189V96.4778H444.795V107.507H435.972V142.066H424.942V61.9189H435.972Z" fill="#00C4D3"/>
<path d="M521.358 126.35H446.726V136.46H521.358V126.35Z" fill="#F2AD00"/>
<path d="M499.667 109.671C494.397 110.743 489.25 111.276 484.226 111.276C478.404 111.276 473.288 110.479 468.876 108.886C464.465 107.293 461.309 104.842 459.409 101.533C457.02 97.1828 455.825 92.1277 455.825 86.3678C455.825 83.5492 456.131 79.8421 456.744 75.2465H452.608V65.1362H513.637V75.2465H467.957C467.222 79.9034 466.854 83.7637 466.854 86.8274C466.854 90.749 467.559 93.9965 468.968 96.5701C469.826 98.0406 471.572 99.162 474.207 99.9279C476.842 100.694 480.028 101.08 483.766 101.08C489.036 101.08 494.458 100.406 500.034 99.0578C505.61 97.7098 510.145 95.9022 513.637 93.635V105.308C509.593 107.146 504.936 108.604 499.667 109.671Z" fill="#5669EF"/>
<path d="M287.448 57.1951H250.132V35.3813H287.448L277.283 46.2882L287.448 57.1951Z" fill="#FF7955"/>
</g>
<rect x="456.001" width="104.907" height="42.3417" rx="8.89445" fill="#F09E00" fill-opacity="0.1"/>
<path d="M475.662 18.9086V21.488H483.445V23.4003H465.567V21.488H473.261V18.9086H475.662ZM466.501 18.1081C470.57 17.5967 473.239 15.3731 473.261 13.0383V12.2822H475.707V13.0383C475.685 15.4398 478.331 17.5967 482.422 18.1081L481.488 20.0204C478.286 19.5312 475.707 18.0636 474.462 15.9957C473.194 18.0636 470.615 19.5312 467.391 20.0204L466.501 18.1081ZM467.613 28.1588C467.635 25.913 470.192 24.6678 474.462 24.69C478.731 24.6678 481.266 25.913 481.266 28.1588C481.266 30.3602 478.731 31.5832 474.462 31.5832C470.192 31.5832 467.635 30.3602 467.613 28.1588ZM470.103 28.1588C470.081 29.2039 471.593 29.7598 474.462 29.7598C477.308 29.7598 478.842 29.2039 478.864 28.1588C478.842 27.047 477.308 26.5134 474.462 26.5134C471.593 26.5134 470.081 27.047 470.103 28.1588ZM495.547 13.8832V15.84H493.635V24.69C494.524 24.6233 495.414 24.5344 496.259 24.4232L496.348 26.2021C492.301 26.8691 487.742 26.9581 484.34 26.9581L484.073 24.9568H486.43V15.84H484.563V13.8832H495.547ZM488.787 24.9346C489.61 24.9124 490.477 24.8679 491.322 24.8457V15.84H488.787V24.9346ZM497.282 31.5832V11.9709H499.683V19.5757H502.707V21.5769H499.683V31.5832H497.282Z" fill="#F09E00"/>
<circle cx="508.455" cy="21.1709" r="1.11181" fill="#F09E00"/>
<path d="M530.162 11.9709V16.7739H532.919V18.7307H530.162V23.4893H527.716V11.9709H530.162ZM514.596 21.8438C519.066 20.6208 521.712 18.2193 522.112 15.2619H515.486V13.3051H524.736C524.736 18.4861 521.356 22.1329 515.575 23.8006L514.596 21.8438ZM517.265 27.6696C517.243 25.2237 519.866 23.7116 523.802 23.7116C527.805 23.7116 530.362 25.2237 530.384 27.6696C530.362 30.0934 527.805 31.5832 523.802 31.5832C519.866 31.5832 517.243 30.0934 517.265 27.6696ZM519.622 27.6696C519.622 28.9371 521.223 29.6931 523.802 29.7154C526.404 29.6931 527.983 28.9371 527.983 27.6696C527.983 26.3577 526.404 25.6017 523.802 25.6239C521.223 25.6017 519.622 26.3577 519.622 27.6696ZM551.336 21.3991V23.3114H533.458V21.3991H541.241V19.4868H535.638V12.8604H549.202V14.7727H538.039V17.5744H549.291V19.4868H543.598V21.3991H551.336ZM535.504 28.0254C535.526 25.7129 538.106 24.4232 542.353 24.4232C546.6 24.4232 549.157 25.7129 549.157 28.0254C549.157 30.2935 546.6 31.6054 542.353 31.6277C538.106 31.6054 535.526 30.2935 535.504 28.0254ZM537.995 28.0254C537.972 29.1595 539.507 29.7376 542.353 29.7154C545.177 29.7376 546.733 29.1595 546.756 28.0254C546.733 26.8914 545.177 26.291 542.353 26.291C539.507 26.291 537.972 26.8914 537.995 28.0254Z" fill="#F09E00"/>
<path d="M547.171 42.2495H533.83V52.9071C533.83 53.8976 535.027 54.3936 535.728 53.6932L547.171 42.2495Z" fill="#F09E00" fill-opacity="0.1"/>
<defs>
<clipPath id="clip0_1245_5910">
<rect width="458.358" height="110.453" fill="white" transform="translate(63 35.3818)"/>
</clipPath>
</defs>
</svg>
