<svg width="144" height="110" viewBox="0 0 144 110" fill="none" xmlns="http://www.w3.org/2000/svg">
<g clip-path="url(#clip0_440_2238)">
<path d="M47.9803 63.1076L68.944 73.6829L83.8569 62.701L98.4387 68.195L110.634 61.5218L113.863 54.4601L107.737 51.2885L113.222 34.9878L107.737 6.00877L83.9727 0.575195L71.1763 16.8759L73.0043 25.9319L65.6921 29.5542L62.036 18.6871L49.2396 22.3095L45.5835 42.2326L32.7465 49.1875L47.9803 63.1076Z" fill="#5669EF" fill-opacity="0.2"/>
<path d="M135.167 62.3108L131.508 49.6263L117.896 55.5357L113.769 64.5558L98.7346 72.7786L84.4622 67.4027L69.3014 78.5631L45.5601 66.5934L14.4174 38.7539L1.6106 56.8746L12.5878 65.935L18.0764 89.4919L34.5423 85.8677L45.5195 105.801H58.3262L72.9625 96.7402L85.7693 94.9281L93.0874 109.425L126.019 82.2436L120.53 74.9953L135.167 62.3108Z" fill="#5669EF" fill-opacity="0.2"/>
<ellipse cx="29.4689" cy="18.4461" rx="13.1098" ry="12.9969" fill="#FF7049"/>
<ellipse cx="29.4689" cy="18.4463" rx="8.19363" ry="8.12308" fill="white"/>
<path d="M29.4689 38.7539L24.5018 26.5693L34.4361 26.5693L29.4689 38.7539Z" fill="#FF7049"/>
<ellipse cx="96.6567" cy="67.9969" rx="13.1098" ry="12.9969" fill="#FF7049"/>
<ellipse cx="96.6566" cy="67.9971" rx="8.19363" ry="8.12308" fill="white"/>
<path d="M96.6567 88.3047L91.6895 76.1201L101.624 76.1201L96.6567 88.3047Z" fill="#FF7049"/>
<path d="M138.127 19.8197C136.331 21.0555 133.733 22.2145 130.508 21.9304C129.984 21.8843 129.496 21.8121 129.043 21.718C125.073 25.6728 119.192 25.1454 118.941 25.1208L119.251 22.1069L119.096 23.6138L119.246 22.1061C119.288 22.1102 122.966 22.4193 125.854 20.4585C125.068 19.9524 124.499 19.3875 124.093 18.8762C122.938 17.418 122.397 15.4636 122.645 13.6503C122.878 11.938 124.143 10.4642 125.865 9.89478C127.525 9.34635 129.219 9.75759 130.397 10.995C131.675 12.3373 132.3 13.9584 132.203 15.6837C132.142 16.7598 131.804 17.8481 131.192 18.9387C135.671 19.1074 138.517 15.4551 138.546 15.4175L140.929 17.2552C140.848 17.36 139.862 18.6259 138.127 19.8197ZM126.313 13.0074C125.94 13.264 125.681 13.6434 125.626 14.0463C125.574 14.4251 125.481 15.7561 126.452 16.9819C126.865 17.5034 127.408 17.9238 128.076 18.2407C129.528 16.2516 129.577 14.5255 128.218 13.0966C127.741 12.5953 127.178 12.6431 126.79 12.7711C126.618 12.8283 126.457 12.9084 126.313 13.0074Z" fill="#5669EF" fill-opacity="0.3"/>
<circle cx="3.88879" cy="91" r="3" fill="#5669EF" fill-opacity="0.3"/>
</g>
<defs>
<clipPath id="clip0_440_2238">
<rect width="143.222" height="110" fill="white" transform="translate(0.388794)"/>
</clipPath>
</defs>
</svg>
