<svg width="108" height="88" viewBox="0 0 108 88" fill="none" xmlns="http://www.w3.org/2000/svg">
<circle cx="5" cy="78.0005" r="5" fill="#F6714E" fill-opacity="0.1"/>
<path d="M102.869 53.242C99.8919 57.2553 95.12 61.697 87.9147 63.476C86.7459 63.7645 85.6343 63.9702 84.5811 64.1029C78.9087 75.6263 65.7661 78.849 65.2029 78.9821L63.6363 72.2171L64.4196 75.5996L63.6267 72.2185C63.7207 72.1961 71.9235 70.1362 76.7303 63.74C74.6517 63.2257 72.9973 62.4236 71.7385 61.6159C68.1512 59.3115 65.5258 55.4757 64.7166 51.3599C63.9524 47.4733 65.5998 43.3388 68.9115 40.8253C72.1034 38.4036 76.0823 38.0375 79.5556 39.8459C83.3241 41.8074 85.8819 44.8589 86.9519 48.6723C87.6201 51.0504 87.6939 53.6617 87.1769 56.4808C97.0151 53.5207 100.474 43.4881 100.51 43.3849L107.04 45.6009C106.943 45.888 105.745 49.365 102.869 53.242ZM72.1947 47.2417C71.5764 48.0752 71.2966 49.0902 71.4764 50.0045C71.6448 50.8647 72.4311 53.8199 75.4453 55.7575C76.7286 56.5815 78.218 57.09 79.902 57.2809C81.5743 51.8895 80.3995 48.11 76.3901 46.0212C74.9832 45.2884 73.7985 45.8101 73.0521 46.3757C72.7212 46.6275 72.4331 46.9202 72.1947 47.2417Z" fill="#F6714E" fill-opacity="0.1"/>
<path d="M12.8863 22.554L14.3662 15.454C29.4129 19.1157 36.1899 8.09762 36.4701 7.62784L36.4594 7.64598L42.753 11.4897C42.508 11.9119 40.2153 15.7144 35.4569 18.9677C30.9898 22.0208 23.4481 25.1227 12.8865 22.5514L12.8863 22.554Z" fill="#F6714E" fill-opacity="0.1"/>
</svg>
