<svg width="106" height="99" viewBox="0 0 106 99" fill="none" xmlns="http://www.w3.org/2000/svg">
<rect x="1" y="25.981" width="59.4774" height="75.5524" transform="rotate(-15.5865 1 25.981)" fill="#F6714E" fill-opacity="0.2"/>
<rect x="14.1775" y="37.3247" width="40.1874" height="2.41125" transform="rotate(-15.5865 14.1775 37.3247)" fill="#F6714E" fill-opacity="0.2"/>
<rect x="18.0647" y="51.2603" width="40.1874" height="2.41125" transform="rotate(-15.5865 18.0647 51.2603)" fill="#F6714E" fill-opacity="0.2"/>
<rect x="21.9524" y="65.1958" width="40.1874" height="2.41125" transform="rotate(-15.5865 21.9524 65.1958)" fill="#F6714E" fill-opacity="0.2"/>
<rect x="26.0555" y="79.9053" width="21.7012" height="2.41125" transform="rotate(-15.5865 26.0555 79.9053)" fill="#F6714E" fill-opacity="0.2"/>
<path fill-rule="evenodd" clip-rule="evenodd" d="M81.3855 37.0845C88.2295 43.9285 88.2295 55.0248 81.3855 61.8689C74.5415 68.7129 63.4452 68.7129 56.6011 61.8689C49.7571 55.0249 49.7571 43.9285 56.6011 37.0845C63.4452 30.2405 74.5415 30.2405 81.3855 37.0845ZM89.6501 64.4774C96.9177 54.4954 96.0484 40.4337 87.0424 31.4277C77.0742 21.4594 60.9125 21.4594 50.9443 31.4277C40.9761 41.3959 40.9761 57.5575 50.9443 67.5257C59.9501 76.5315 74.0112 77.401 83.9931 70.1341L98.0725 84.2135C99.6346 85.7756 102.167 85.7756 103.729 84.2135C105.291 82.6514 105.291 80.1188 103.729 78.5567L89.6501 64.4774Z" fill="#FA977C"/>
<path d="M100.627 14.8197C98.8307 16.0555 96.2331 17.2145 93.0075 16.9304C92.4843 16.8843 91.9963 16.8121 91.5429 16.718C87.5727 20.6728 81.6923 20.1454 81.441 20.1208L81.7505 17.1069L81.5957 18.6138L81.7463 17.1061C81.7883 17.1102 85.4654 17.4193 88.3535 15.4585C87.5683 14.9524 86.9987 14.3875 86.5933 13.8762C85.4383 12.418 84.8967 10.4636 85.1444 8.65029C85.3783 6.93797 86.6428 5.46423 88.365 4.89478C90.0248 4.34635 91.7189 4.75759 92.897 5.99502C94.1753 7.3373 94.7998 8.95841 94.7025 10.6837C94.6422 11.7598 94.3035 12.8481 93.6917 13.9387C98.171 14.1074 101.017 10.4551 101.046 10.4175L103.428 12.2552C103.348 12.36 102.362 13.6259 100.627 14.8197ZM88.8133 8.00736C88.4403 8.26404 88.1813 8.64345 88.1263 9.04628C88.0742 9.42514 87.9811 10.7561 88.9514 11.9819C89.3647 12.5034 89.9076 12.9238 90.5757 13.2407C92.028 11.2516 92.0773 9.52549 90.7176 8.09657C90.2404 7.59526 89.6776 7.64312 89.2896 7.77109C89.1174 7.82827 88.9572 7.90838 88.8133 8.00736Z" fill="#F6714E" fill-opacity="0.3"/>
<circle cx="3.5" cy="91" r="3" fill="#F6714E" fill-opacity="0.3"/>
</svg>
