<svg width="320" height="119" viewBox="0 0 320 119" fill="none" xmlns="http://www.w3.org/2000/svg">
<path fill-rule="evenodd" clip-rule="evenodd" d="M303.569 -19.7314L308.008 -8.6855C307.357 -8.42125 291.832 -2.22992 271.058 -5.34715C263.43 -6.49207 253.668 -3.76995 244.939 1.93395C236.287 7.58776 230.091 15.202 228.362 22.3015L216.637 19.6677C219.113 9.49693 227.049 -0.591825 238.407 -8.0137C249.754 -15.4296 262.378 -18.7628 273.041 -17.1641C290.355 -14.5672 303.459 -19.6859 303.589 -19.7393L305.789 -14.2105L303.569 -19.7314ZM54.4999 42.9996C58.6421 42.9996 61.9999 39.6418 61.9999 35.4996C61.9999 31.3575 58.6421 27.9996 54.4999 27.9996C50.3578 27.9996 46.9999 31.3575 46.9999 35.4996C46.9999 39.6418 50.3578 42.9996 54.4999 42.9996ZM327.989 78.799C323.342 85.0644 315.892 91.9985 304.644 94.7758C302.819 95.2262 301.084 95.5474 299.44 95.7544C290.584 113.744 270.066 118.775 269.187 118.983L267.964 113.703L266.726 108.424C266.873 108.389 279.679 105.173 287.183 95.188C283.938 94.385 281.355 93.1329 279.39 91.8719C273.79 88.2745 269.691 82.2862 268.428 75.8608C267.235 69.7932 269.807 63.3387 274.977 59.4146C279.96 55.6341 286.172 55.0624 291.594 57.8858C297.477 60.9479 301.47 65.7117 303.141 71.6651C304.184 75.3776 304.299 79.4542 303.492 83.8552C318.831 79.2402 324.237 63.6125 324.307 63.4112L324.307 63.4105L334.501 66.87C334.35 67.3183 332.479 72.7464 327.989 78.799ZM280.102 69.4316C279.137 70.7329 278.7 72.3174 278.981 73.7449C279.244 75.0877 280.472 79.7012 285.177 82.7261C287.181 84.0124 289.506 84.8063 292.135 85.1044C294.746 76.6876 292.911 70.7872 286.652 67.5262C284.456 66.3823 282.606 67.1967 281.441 68.0797C280.924 68.4728 280.475 68.9298 280.102 69.4316ZM-5.66203 106.572L-5.66284 106.576L-5.66249 106.572C-5.66234 106.572 -5.66218 106.572 -5.66203 106.572ZM-5.66203 106.572C-3.70849 107.048 -1.82112 107.399 -8.44002e-05 107.641C13.5485 109.44 23.4258 105.179 29.5733 100.977C37.0018 95.8986 40.5812 89.9624 40.9636 89.3032L31.1384 83.3026L31.155 83.2743C30.739 83.9718 21.1478 99.5664 -8.44002e-05 96.1708C-1.08694 95.9963 -2.20432 95.7716 -3.35255 95.4922L-5.66203 106.572Z" fill="#F6714E" fill-opacity="0.1"/>
</svg>
