<svg width="16" height="16" viewBox="0 0 16 16" fill="none" xmlns="http://www.w3.org/2000/svg">
<path fill-rule="evenodd" clip-rule="evenodd" d="M8.65427 6.34887C7.5883 4.92377 7.11907 3.24009 7.005 2.0994L8.99508 1.90039C9.08101 2.7597 9.45178 4.07602 10.2558 5.15092C11.032 6.18855 12.2021 6.99989 14 6.99989V8.99989C11.478 8.99989 9.74813 7.81124 8.65427 6.34887Z" fill="white"/>
<path fill-rule="evenodd" clip-rule="evenodd" d="M8.65427 9.65113C7.5883 11.0762 7.11907 12.7599 7.005 13.9006L8.99508 14.0996C9.08101 13.2403 9.45178 11.924 10.2558 10.8491C11.032 9.81145 12.2021 9.00011 14 9.00011V7.00011C11.478 7.00011 9.74813 8.18876 8.65427 9.65113Z" fill="white"/>
<path opacity="0.5" fill-rule="evenodd" clip-rule="evenodd" d="M1.5 7L10.5 7V9L1.5 9L1.5 7Z" fill="white"/>
</svg>
