<svg width="16" height="16" viewBox="0 0 16 16" fill="none" xmlns="http://www.w3.org/2000/svg">
<path fill-rule="evenodd" clip-rule="evenodd" d="M8.65421 6.34887C7.58824 4.92377 7.11901 3.24009 7.00494 2.0994L8.99502 1.90039C9.08095 2.7597 9.45172 4.07602 10.2557 5.15092C11.0319 6.18855 12.202 6.99989 14 6.99989V8.99989C11.4779 8.99989 9.74806 7.81124 8.65421 6.34887Z" fill="white"/>
<path fill-rule="evenodd" clip-rule="evenodd" d="M8.65421 9.65113C7.58824 11.0762 7.11901 12.7599 7.00494 13.9006L8.99502 14.0996C9.08095 13.2403 9.45172 11.924 10.2557 10.8491C11.0319 9.81145 12.202 9.00011 14 9.00011V7.00011C11.4779 7.00011 9.74806 8.18876 8.65421 9.65113Z" fill="white"/>
<path opacity="0.5" fill-rule="evenodd" clip-rule="evenodd" d="M1.5 7L10.5 7V9L1.5 9L1.5 7Z" fill="white"/>
</svg>
