<svg width="49" height="25" viewBox="0 0 49 25" fill="none" xmlns="http://www.w3.org/2000/svg">
<rect width="49" height="19" rx="4" fill="#F09E00" fill-opacity="0.1"/>
<path d="M9.29742 8.16V9.32H12.7974V10.18H4.75742V9.32H8.21742V8.16H9.29742ZM5.17742 7.8C7.00742 7.57 8.20742 6.57 8.21742 5.52V5.18H9.31742V5.52C9.30742 6.6 10.4974 7.57 12.3374 7.8L11.9174 8.66C10.4774 8.44 9.31742 7.78 8.75742 6.85C8.18742 7.78 7.02742 8.44 5.57742 8.66L5.17742 7.8ZM5.67742 12.32C5.68742 11.31 6.83742 10.75 8.75742 10.76C10.6774 10.75 11.8174 11.31 11.8174 12.32C11.8174 13.31 10.6774 13.86 8.75742 13.86C6.83742 13.86 5.68742 13.31 5.67742 12.32ZM6.79742 12.32C6.78742 12.79 7.46742 13.04 8.75742 13.04C10.0374 13.04 10.7274 12.79 10.7374 12.32C10.7274 11.82 10.0374 11.58 8.75742 11.58C7.46742 11.58 6.78742 11.82 6.79742 12.32ZM18.24 5.9V6.78H17.38V10.76C17.78 10.73 18.18 10.69 18.56 10.64L18.6 11.44C16.78 11.74 14.73 11.78 13.2 11.78L13.08 10.88H14.14V6.78H13.3V5.9H18.24ZM15.2 10.87C15.57 10.86 15.96 10.84 16.34 10.83V6.78H15.2V10.87ZM19.02 13.86V5.04H20.1V8.46H21.46V9.36H20.1V13.86H19.02Z" fill="#F09E00"/>
<circle cx="24.5" cy="9.5" r="0.5" fill="#F09E00"/>
<path d="M34.7174 5.04V7.2H35.9574V8.08H34.7174V10.22H33.6174V5.04H34.7174ZM27.7174 9.48C29.7274 8.93 30.9174 7.85 31.0974 6.52H28.1174V5.64H32.2774C32.2774 7.97 30.7574 9.61 28.1574 10.36L27.7174 9.48ZM28.9174 12.1C28.9074 11 30.0874 10.32 31.8574 10.32C33.6574 10.32 34.8074 11 34.8174 12.1C34.8074 13.19 33.6574 13.86 31.8574 13.86C30.0874 13.86 28.9074 13.19 28.9174 12.1ZM29.9774 12.1C29.9774 12.67 30.6974 13.01 31.8574 13.02C33.0274 13.01 33.7374 12.67 33.7374 12.1C33.7374 11.51 33.0274 11.17 31.8574 11.18C30.6974 11.17 29.9774 11.51 29.9774 12.1ZM44.24 9.28V10.14H36.2V9.28H39.7V8.42H37.18V5.44H43.28V6.3H38.26V7.56H43.32V8.42H40.76V9.28H44.24ZM37.12 12.26C37.13 11.22 38.29 10.64 40.2 10.64C42.11 10.64 43.26 11.22 43.26 12.26C43.26 13.28 42.11 13.87 40.2 13.88C38.29 13.87 37.13 13.28 37.12 12.26ZM38.24 12.26C38.23 12.77 38.92 13.03 40.2 13.02C41.47 13.03 42.17 12.77 42.18 12.26C42.17 11.75 41.47 11.48 40.2 11.48C38.92 11.48 38.23 11.75 38.24 12.26Z" fill="#F09E00"/>
<path d="M41 19H35V23.7929C35 24.2383 35.5386 24.4614 35.8536 24.1464L41 19Z" fill="#F09E00" fill-opacity="0.1"/>
</svg>
