<svg width="28" height="26" viewBox="0 0 28 26" fill="none" xmlns="http://www.w3.org/2000/svg">
<path d="M0 4C0 1.79086 1.79086 0 4 0H24C26.2091 0 28 1.79086 28 4V18C28 20.2091 26.2091 22 24 22H4C1.79086 22 0 20.2091 0 18V4Z" fill="#F6714E" fill-opacity="0.1"/>
<path d="M10.3428 15.12C8.29081 15.12 7.07881 13.536 7.07881 10.752C7.07881 7.992 8.30281 6.396 10.3428 6.408C12.3708 6.396 13.5948 7.992 13.6068 10.752C13.5948 13.536 12.3708 15.12 10.3428 15.12ZM8.61481 10.752C8.61481 12.792 9.27481 13.836 10.3428 13.824C11.3988 13.836 12.0588 12.792 12.0468 10.752C12.0588 8.736 11.3988 7.668 10.3428 7.656C9.27481 7.668 8.61481 8.736 8.61481 10.752ZM17.7072 15.12C15.8952 15.12 14.5992 14.136 14.5632 12.696H16.0992C16.1352 13.38 16.8192 13.836 17.7072 13.824C18.6312 13.836 19.3032 13.32 19.3152 12.576C19.3032 11.796 18.6552 11.256 17.5392 11.256H16.7952V10.08H17.5392C18.4512 10.08 19.0752 9.576 19.0752 8.832C19.0752 8.124 18.5352 7.644 17.7072 7.632C16.9152 7.644 16.2312 8.088 16.1952 8.808H14.7312C14.7672 7.38 16.0632 6.396 17.7312 6.408C19.4472 6.396 20.5632 7.452 20.5392 8.76C20.5632 9.708 19.9272 10.392 19.0032 10.584V10.656C20.2032 10.812 20.8752 11.58 20.8752 12.648C20.8752 14.076 19.5312 15.12 17.7072 15.12Z" fill="#F6714E"/>
<path d="M17 22H11L13.6 25.4667C13.8 25.7333 14.2 25.7333 14.4 25.4667L17 22Z" fill="#F6714E" fill-opacity="0.1"/>
</svg>
