<svg width="28" height="26" viewBox="0 0 28 26" fill="none" xmlns="http://www.w3.org/2000/svg">
<path d="M0 4C0 1.79086 1.79086 0 4 0H24C26.2091 0 28 1.79086 28 4V18C28 20.2091 26.2091 22 24 22H4C1.79086 22 0 20.2091 0 18V4Z" fill="#F6714E" fill-opacity="0.1"/>
<path d="M11.3858 15.12C9.33378 15.12 8.12178 13.536 8.12178 10.752C8.12178 7.992 9.34578 6.396 11.3858 6.408C13.4138 6.396 14.6378 7.992 14.6498 10.752C14.6378 13.536 13.4138 15.12 11.3858 15.12ZM9.65778 10.752C9.65778 12.792 10.3178 13.836 11.3858 13.824C12.4418 13.836 13.1018 12.792 13.0898 10.752C13.1018 8.736 12.4418 7.668 11.3858 7.656C10.3178 7.668 9.65778 8.736 9.65778 10.752ZM19.1101 6.504V15H17.5741V7.992H17.5261L15.5341 9.264V7.872L17.6461 6.504H19.1101Z" fill="#F6714E"/>
<path d="M17 22H11L13.6 25.4667C13.8 25.7333 14.2 25.7333 14.4 25.4667L17 22Z" fill="#F6714E" fill-opacity="0.1"/>
</svg>
