<svg width="28" height="26" viewBox="0 0 28 26" fill="none" xmlns="http://www.w3.org/2000/svg">
<path d="M0 4C0 1.79086 1.79086 0 4 0H24C26.2091 0 28 1.79086 28 4V18C28 20.2091 26.2091 22 24 22H4C1.79086 22 0 20.2091 0 18V4Z" fill="#F6714E" fill-opacity="0.1"/>
<path d="M10.5245 15.12C8.47245 15.12 7.26045 13.536 7.26045 10.752C7.26045 7.992 8.48445 6.396 10.5245 6.408C12.5525 6.396 13.7765 7.992 13.7885 10.752C13.7765 13.536 12.5525 15.12 10.5245 15.12ZM8.79645 10.752C8.79645 12.792 9.45645 13.836 10.5245 13.824C11.5805 13.836 12.2405 12.792 12.2285 10.752C12.2405 8.736 11.5805 7.668 10.5245 7.656C9.45645 7.668 8.79645 8.736 8.79645 10.752ZM14.8168 15L14.7928 13.896L17.7928 11.016C18.6568 10.152 19.1008 9.648 19.1128 8.928C19.1008 8.136 18.4768 7.644 17.6488 7.632C16.7728 7.644 16.2088 8.184 16.2088 9.048H14.7688C14.7568 7.44 15.9688 6.396 17.6728 6.408C19.3888 6.396 20.5648 7.428 20.5768 8.856C20.5648 9.816 20.0968 10.596 18.4408 12.168L16.9288 13.656V13.728H20.6968V15H14.8168Z" fill="#F6714E"/>
<path d="M17 22H11L13.6 25.4667C13.8 25.7333 14.2 25.7333 14.4 25.4667L17 22Z" fill="#F6714E" fill-opacity="0.1"/>
</svg>
