<svg width="13" height="13" viewBox="0 0 13 13" fill="none" xmlns="http://www.w3.org/2000/svg">
<path fill-rule="evenodd" clip-rule="evenodd" d="M10.5958 2.40354C9.22896 1.03671 7.01289 1.03671 5.64605 2.40354C4.27922 3.77038 4.27922 5.98646 5.64605 7.35329C7.01289 8.72013 9.22896 8.72013 10.5958 7.35329C11.9626 5.98646 11.9626 3.77038 10.5958 2.40354ZM4.93894 1.69644C6.6963 -0.0609217 9.54555 -0.0609219 11.3029 1.69644C13.0603 3.4538 13.0603 6.30304 11.3029 8.0604C9.66505 9.69826 7.07875 9.80963 5.31191 8.39452L3.87825 9.82818L5.64607 11.596L4.93896 12.3031L3.17114 10.5353L1.4034 12.303L0.696289 11.5959L2.46404 9.82818L0.696324 8.06047L1.40343 7.35336L3.17114 9.12107L4.6048 7.68741C3.18971 5.92057 3.30109 3.33429 4.93894 1.69644Z" fill="#F6714E"/>
</svg>
