<svg width="17" height="17" viewBox="0 0 17 17" fill="current" xmlns="http://www.w3.org/2000/svg">
<g clip-path="url(#clip0_6_577)">
<path fill-rule="evenodd" clip-rule="evenodd" d="M12.5963 4.40373C11.2295 3.03689 9.01337 3.03689 7.64654 4.40373C6.2797 5.77056 6.27971 7.98664 7.64654 9.35348C9.01338 10.7203 11.2295 10.7203 12.5963 9.35347C13.9631 7.98664 13.9631 5.77056 12.5963 4.40373ZM6.93943 3.69662C8.69679 1.93926 11.546 1.93926 13.3034 3.69662C15.0608 5.45398 15.0608 8.30322 13.3034 10.0606C11.6655 11.6984 9.07924 11.8098 7.31239 10.3947L5.87874 11.8284L7.64656 13.5962L6.93945 14.3033L5.17163 12.5355L3.40388 14.3032L2.69678 13.5961L4.46452 11.8284L2.69681 10.0606L3.40392 9.35354L5.17163 11.1213L6.60529 9.68759C5.1902 7.92075 5.30158 5.33447 6.93943 3.69662Z" fill="current"/>
</g>
<defs>
<clipPath id="clip0_6_577">
<rect width="16" height="16" fill="current" transform="translate(0.5 0.5)"/>
</clipPath>
</defs>
</svg>
