<svg width="13" height="13" viewBox="0 0 13 13" fill="none" xmlns="http://www.w3.org/2000/svg">
<path fill-rule="evenodd" clip-rule="evenodd" d="M10.0963 2.40354C8.72945 1.03671 6.51337 1.03671 5.14654 2.40354C3.7797 3.77038 3.77971 5.98646 5.14654 7.35329C6.51338 8.72013 8.72945 8.72013 10.0963 7.35329C11.4631 5.98646 11.4631 3.77038 10.0963 2.40354ZM4.43943 1.69644C6.19679 -0.0609218 9.04603 -0.060922 10.8034 1.69644C12.5608 3.4538 12.5608 6.30304 10.8034 8.0604C9.16554 9.69826 6.57924 9.80963 4.81239 8.39452L3.37874 9.82818L5.14656 11.596L4.43945 12.3031L2.67163 10.5353L0.903884 12.303L0.196777 11.5959L1.96452 9.82818L0.196812 8.06047L0.903919 7.35336L2.67163 9.12107L4.10529 7.68741C2.6902 5.92057 2.80158 3.33429 4.43943 1.69644Z" fill="#5C5C5C"/>
</svg>
