<svg width="17" height="16" viewBox="0 0 17 16" fill="none" xmlns="http://www.w3.org/2000/svg">
<g clip-path="url(#clip0_898_2562)">
<path d="M7.16675 8.66672C7.45305 9.04948 7.81832 9.36618 8.23778 9.59535C8.65724 9.82452 9.12109 9.9608 9.59785 9.99495C10.0746 10.0291 10.5531 9.9603 11.001 9.79325C11.4488 9.62619 11.8555 9.36477 12.1934 9.02672L14.1934 7.02672C14.8006 6.39805 15.1366 5.55604 15.129 4.68205C15.1214 3.80806 14.7708 2.97202 14.1528 2.354C13.5348 1.73597 12.6987 1.38541 11.8248 1.37781C10.9508 1.37022 10.1088 1.7062 9.48008 2.31339L8.33341 3.45339" stroke="#E4E4E4" stroke-width="2" stroke-linecap="round" stroke-linejoin="round"/>
<path d="M9.83322 7.33332C9.54692 6.95057 9.18165 6.63387 8.76219 6.40469C8.34273 6.17552 7.87888 6.03924 7.40212 6.0051C6.92536 5.97095 6.44683 6.03974 5.99899 6.2068C5.55115 6.37386 5.14448 6.63527 4.80656 6.97332L2.80656 8.97332C2.19936 9.60199 1.86338 10.444 1.87098 11.318C1.87857 12.192 2.22913 13.028 2.84716 13.646C3.46519 14.2641 4.30123 14.6146 5.17522 14.6222C6.04921 14.6298 6.89121 14.2938 7.51989 13.6867L8.65989 12.5467" stroke="#E4E4E4" stroke-width="2" stroke-linecap="round" stroke-linejoin="round"/>
</g>
<defs>
<clipPath id="clip0_898_2562">
<rect width="16" height="16" fill="white" transform="translate(0.5)"/>
</clipPath>
</defs>
</svg>
