<svg width="76" height="98" viewBox="0 0 76 98" fill="none" xmlns="http://www.w3.org/2000/svg">
<g clip-path="url(#clip0_440_2128)">
<path d="M83.9895 43.7988C79.3421 50.0643 71.8924 56.9984 60.6439 59.7757C58.8193 60.2261 57.0838 60.5472 55.4396 60.7543C46.5841 78.7441 26.0666 83.7753 25.1873 83.9831L22.7416 73.4219L23.9645 78.7025L22.7266 73.4241C22.8734 73.3891 35.6792 70.1733 43.1833 60.1878C39.9383 59.3849 37.3556 58.1327 35.3903 56.8718C29.7901 53.2743 25.6914 47.2861 24.4281 40.8606C23.2351 34.793 25.807 28.3385 30.977 24.4145C35.96 20.634 42.1717 20.0623 47.5941 22.8856C53.4772 25.9478 57.4703 30.7116 59.1408 36.665C60.184 40.3775 60.2991 44.454 59.492 48.8551C74.8509 44.234 80.2512 28.5716 80.3069 28.4104L90.5013 31.8699C90.35 32.3182 88.479 37.7463 83.9895 43.7988ZM36.1025 34.4315C35.1373 35.7328 34.7006 37.3173 34.9812 38.7447C35.2441 40.0876 36.4716 44.7011 41.1772 47.7259C43.1806 49.0123 45.5058 49.8062 48.1349 50.1043C50.7456 41.6875 48.9116 35.7871 42.6523 32.5261C40.4558 31.3822 38.6063 32.1965 37.441 33.0795C36.9245 33.4726 36.4748 33.9296 36.1025 34.4315Z" fill="#5669EF" fill-opacity="0.1"/>
</g>
<defs>
<clipPath id="clip0_440_2128">
<rect width="92" height="98" fill="white"/>
</clipPath>
</defs>
</svg>
