<svg width="12" height="13" viewBox="0 0 12 13" fill="none" xmlns="http://www.w3.org/2000/svg">
<path fill-rule="evenodd" clip-rule="evenodd" d="M9.79297 1.5H7V0.5H11.5V5H10.5V2.20718L8.03222 4.67496C8.93412 5.4979 9.5 6.68287 9.5 8C9.5 10.4853 7.48528 12.5 5 12.5C2.51472 12.5 0.5 10.4853 0.5 8C0.5 5.51472 2.51472 3.5 5 3.5C5.80419 3.5 6.55911 3.71095 7.21244 4.08053L9.79297 1.5ZM5 4.5C3.067 4.5 1.5 6.067 1.5 8C1.5 9.933 3.067 11.5 5 11.5C6.933 11.5 8.5 9.933 8.5 8C8.5 6.067 6.933 4.5 5 4.5Z" fill="#5C5C5C"/>
</svg>
