<svg width="17" height="17" viewBox="0 0 17 17" fill="current" xmlns="http://www.w3.org/2000/svg">
<g clip-path="url(#clip0_6_281)">
<path fill-rule="evenodd" clip-rule="evenodd" d="M11.293 3.5H8.5V2.5H13V7H12V4.20718L9.53222 6.67496C10.4341 7.4979 11 8.68287 11 10C11 12.4853 8.98528 14.5 6.5 14.5C4.01472 14.5 2 12.4853 2 10C2 7.51472 4.01472 5.5 6.5 5.5C7.30419 5.5 8.05911 5.71095 8.71244 6.08053L11.293 3.5ZM6.5 6.5C4.567 6.5 3 8.067 3 10C3 11.933 4.567 13.5 6.5 13.5C8.433 13.5 10 11.933 10 10C10 8.067 8.433 6.5 6.5 6.5Z" fill="current"/>
</g>
<defs>
<clipPath id="clip0_6_281">
<rect width="16" height="16" fill="current" transform="translate(0.5 0.5)"/>
</clipPath>
</defs>
</svg>
