<svg width="16" height="17" viewBox="0 0 16 17" fill="none" xmlns="http://www.w3.org/2000/svg">
<path d="M12.9997 10.9869V12.4923C13.0003 12.6321 12.9716 12.7704 12.9155 12.8985C12.8594 13.0265 12.7771 13.1414 12.6739 13.2359C12.5707 13.3304 12.4489 13.4023 12.3163 13.4471C12.1836 13.4919 12.0431 13.5085 11.9036 13.4959C10.3564 13.3281 8.87022 12.8005 7.56445 11.9554C6.34961 11.185 5.31963 10.157 4.54767 8.94459C3.69793 7.63549 3.16912 6.14504 3.00408 4.59397C2.99152 4.45521 3.00804 4.31536 3.0526 4.18331C3.09716 4.05127 3.16878 3.92994 3.2629 3.82703C3.35703 3.72413 3.47158 3.64191 3.59929 3.58562C3.72699 3.52932 3.86504 3.50018 4.00465 3.50005H5.51304C5.75705 3.49765 5.99361 3.58389 6.17862 3.74269C6.36364 3.90148 6.48448 4.122 6.51863 4.36315C6.5823 4.84491 6.70037 5.31794 6.87059 5.77321C6.93824 5.95281 6.95288 6.14801 6.91278 6.33567C6.87268 6.52332 6.77952 6.69557 6.64433 6.83201L6.00578 7.4693C6.72154 8.72558 7.76379 9.76576 9.02256 10.4801L9.66112 9.84281C9.79782 9.7079 9.97041 9.61492 10.1584 9.5749C10.3465 9.53488 10.5421 9.54949 10.722 9.617C11.1782 9.78689 11.6522 9.90473 12.1349 9.96827C12.3791 10.0027 12.6022 10.1254 12.7616 10.3133C12.9211 10.5011 13.0058 10.7408 12.9997 10.9869Z" fill="#B0B0B0"/>
</svg>
