<svg width="106" height="34" viewBox="0 0 106 34" fill="none" xmlns="http://www.w3.org/2000/svg">
<path d="M0 4C0 1.79086 1.79086 0 4 0H102C104.209 0 106 1.79086 106 4V24C106 26.2091 104.209 28 102 28H4C1.79086 28 0 26.2091 0 24V4Z" fill="#F6714E"/>
<path d="M16.2315 18.1172C14.4209 18.1172 13.126 17.1328 13.0909 15.7031H14.626C14.667 16.3828 15.3467 16.834 16.2315 16.8281C17.1631 16.834 17.837 16.3184 17.837 15.5625C17.837 14.8008 17.1807 14.2559 16.0791 14.25H15.3174V13.0781H16.0791C16.9815 13.0781 17.6084 12.5742 17.6026 11.8359C17.6084 11.1211 17.0694 10.6406 16.2432 10.6406C15.4463 10.6406 14.7608 11.0859 14.7315 11.8008H13.2666C13.3018 10.377 14.5967 9.39844 16.2549 9.39844C17.9776 9.39844 19.0909 10.4531 19.0791 11.7539C19.0909 12.7031 18.458 13.3887 17.5323 13.582V13.6523C18.7276 13.8105 19.4073 14.5781 19.3955 15.6445C19.4073 17.0801 18.0655 18.1172 16.2315 18.1172ZM29.8196 16.7227V17.7891H20.1399V16.7227H24.3235V14.5312H25.6126V16.7227H29.8196ZM20.5384 13.875C22.8352 13.5762 24.2122 12.3574 24.3059 11.0391H20.9954V9.98438H24.3235V8.61328H25.6126V9.98438H28.9524V11.0391H25.6419C25.7298 12.3574 27.1067 13.5762 29.3977 13.875L28.9173 14.8945C27.0891 14.6367 25.6712 13.8223 24.968 12.668C24.2708 13.8223 22.8645 14.6367 21.0305 14.8945L20.5384 13.875ZM35.6499 9.36328V14.3672H30.6343V9.36328H35.6499ZM31.8413 18.832V15.4336H33.1421V17.7773H39.0484V18.832H31.8413ZM31.9116 13.3359H34.3726V10.4062H31.9116V13.3359ZM37.3257 16.1836V8.44922H38.6265V11.5547H40.103V12.6445H38.6265V16.1836H37.3257ZM49.5427 8.44922V19.043H48.2888V8.44922H49.5427ZM40.5076 13.0312C40.5076 10.6992 41.4099 9.25195 42.7927 9.25781C44.0759 9.25195 44.949 10.4531 45.1013 12.4336H46.1209V8.63672H47.363V18.5273H46.1209V13.4883H45.113C44.99 15.5566 44.1052 16.8223 42.7927 16.8164C41.4099 16.8223 40.5076 15.3691 40.5076 13.0312ZM41.7146 13.0312C41.7087 14.6895 42.1189 15.5801 42.7927 15.5742C43.4959 15.5801 43.9119 14.6895 43.9177 13.0312C43.9119 11.3789 43.4959 10.4824 42.7927 10.4883C42.1189 10.4824 41.7087 11.3789 41.7146 13.0312ZM57.1487 10.9922C57.137 12.9375 58.1623 14.8828 59.8791 15.6211L59.1057 16.6641C57.887 16.1016 56.9963 14.9824 56.5041 13.5996C56.0178 15.0879 55.1037 16.3066 53.8205 16.9102L53.0237 15.8203C54.7873 15.0586 55.8186 13.0371 55.8245 10.9922V9.30469H57.1487V10.9922ZM60.6409 19.0547V8.44922H61.9534V19.0547H60.6409ZM67.0688 10.2891C67.0688 11.5957 67.9067 12.8789 69.5766 13.4297L68.9204 14.4375C67.7309 14.0391 66.893 13.248 66.4302 12.2578C65.9614 13.3418 65.0825 14.2031 63.8462 14.625L63.1548 13.6172C64.8598 13.0488 65.7563 11.6777 65.7563 10.2891V10.1602H63.518V9.11719H69.272V10.1602H67.0688V10.2891ZM64.5727 16.3711V15.3281H71.6274V19.043H70.3266V16.3711H64.5727ZM70.3266 14.8359V8.44922H71.6274V11.0977H73.104V12.1875H71.6274V14.8359H70.3266ZM81.6999 8.44922V12.668H83.3288V13.7461H81.6999V19.043H80.4109V8.44922H81.6999ZM73.3445 11.1211V10.0781H75.8523V8.60156H77.153V10.0781H79.5905V11.1211H73.3445ZM73.8366 14.3086C73.8249 12.8438 74.9616 11.8066 76.5085 11.8125C78.032 11.8066 79.1628 12.8438 79.1687 14.3086C79.1628 15.7676 78.032 16.793 76.5085 16.793C74.9616 16.793 73.8249 15.7676 73.8366 14.3086ZM75.0788 14.3086C75.073 15.1699 75.6765 15.7207 76.5085 15.7148C77.323 15.7207 77.9148 15.1699 77.9265 14.3086C77.9148 13.4473 77.323 12.8789 76.5085 12.8789C75.6765 12.8789 75.073 13.4473 75.0788 14.3086ZM92.3818 8.44922V19.043H91.0693V8.44922H92.3818ZM83.6045 16.125C86.3818 14.8066 87.6591 13.0137 87.8935 10.6055H84.1435V9.57422H89.2177C89.2177 12.7266 87.9931 15.4043 84.2841 17.168L83.6045 16.125Z" fill="white"/>
<path d="M57 28H49L52.1679 32.7519C52.5638 33.3457 53.4362 33.3457 53.8321 32.7519L57 28Z" fill="#F6714E"/>
</svg>
