<svg width="34" height="33" viewBox="0 0 34 33" fill="none" xmlns="http://www.w3.org/2000/svg">
<path d="M15.2311 2.42417C15.9815 1.00188 18.0185 1.00188 18.7689 2.42417L22.0971 8.73232C22.5312 9.55506 23.3224 10.1299 24.239 10.2885L31.2669 11.5045C32.8514 11.7787 33.4809 13.7159 32.3601 14.8691L27.3892 19.9838C26.7409 20.6509 26.4386 21.5809 26.5711 22.5017L27.5863 29.5614C27.8152 31.1531 26.1673 32.3504 24.7242 31.6408L18.3237 28.4937C17.489 28.0833 16.511 28.0833 15.6763 28.4937L9.27582 31.6408C7.83273 32.3504 6.18478 31.1531 6.41369 29.5614L7.42894 22.5017C7.56135 21.5809 7.25915 20.6509 6.61082 19.9838L1.63989 14.8691C0.519096 13.7159 1.14855 11.7787 2.73312 11.5045L9.76101 10.2885C10.6776 10.1299 11.4688 9.55506 11.9029 8.73233L15.2311 2.42417Z" fill="#EDEDED" stroke="#E4E4E4"/>
</svg>
