<svg width="24" height="26" viewBox="0 0 24 26" fill="none" xmlns="http://www.w3.org/2000/svg">
<path d="M19.3596 15.8847C18.3699 14.5529 16.7703 13.6678 14.5633 13.2306L14.7508 9.60889H11.0009L10.8133 12.9501C9.91681 12.9925 9.05216 13.0644 8.21936 13.1681C6.53252 13.3979 5.10991 13.8811 3.95389 14.6201C2.79788 15.359 1.93322 16.2441 1.35993 17.2742C0.786645 18.3042 0.5 19.3508 0.5 20.4115C0.5 21.3072 0.698174 22.1286 1.09334 22.8782C1.48851 23.6277 2.0618 24.2312 2.81203 24.6884C3.56226 25.1469 4.45759 25.3755 5.49918 25.3755C5.83183 25.3755 6.18689 25.3449 6.56201 25.2812C8.87404 24.9689 10.6352 24.0485 11.8431 22.5187C13.051 20.989 13.8532 19.0797 14.2495 16.7898C15.3123 17.1021 16.0779 17.6018 16.5462 18.2889C17.0145 18.976 17.2493 19.7668 17.2493 20.6613C17.2493 21.4109 17.1195 22.1711 16.8588 22.9406C16.5981 23.7114 16.2961 24.382 15.9529 24.9548C15.6096 25.5276 15.3324 25.8752 15.1248 26.0002H19.5625C19.9576 25.2094 20.2702 24.3455 20.5003 23.4085C20.7291 22.4716 20.8435 21.5358 20.8435 20.5989C20.8435 18.7886 20.3481 17.2164 19.3596 15.8847ZM6.06303 21.9106C5.47913 21.9943 5.02144 21.8906 4.68761 21.5983C4.35378 21.3072 4.18746 20.9006 4.18746 20.3808C4.18746 19.8611 4.35968 19.3614 4.70294 18.8193C5.04621 18.2783 5.55698 17.8045 6.23408 17.3991C6.91117 16.9937 7.73926 16.7273 8.71833 16.6036C9.13473 16.5411 9.73869 16.4893 10.5302 16.448C9.9463 19.7574 8.45646 21.5794 6.06185 21.9118L6.06303 21.9106Z" fill="#5669EF" fill-opacity="0.1"/>
<path d="M23.5013 7.41072H10.8135V0H23.5013L20.0439 3.70536L23.5013 7.41072Z" fill="#5669EF" fill-opacity="0.6"/>
</svg>
