<svg width="24" height="26" viewBox="0 0 24 26" fill="none" xmlns="http://www.w3.org/2000/svg">
<g clip-path="url(#clip0_440_2233)">
<path d="M18.8596 15.8847C17.8699 14.5529 16.2703 13.6678 14.0633 13.2306L14.2508 9.60889H10.5009L10.3133 12.9501C9.41681 12.9925 8.55216 13.0644 7.71936 13.1681C6.03252 13.3979 4.60991 13.8811 3.45389 14.6201C2.29788 15.359 1.43322 16.2441 0.859934 17.2742C0.286645 18.3042 0 19.3508 0 20.4115C0 21.3072 0.198174 22.1286 0.593343 22.8782C0.988512 23.6277 1.5618 24.2312 2.31203 24.6884C3.06226 25.1469 3.95759 25.3755 4.99918 25.3755C5.33183 25.3755 5.68689 25.3449 6.06201 25.2812C8.37404 24.9689 10.1352 24.0485 11.3431 22.5187C12.551 20.989 13.3532 19.0797 13.7495 16.7898C14.8123 17.1021 15.5779 17.6018 16.0462 18.2889C16.5145 18.976 16.7493 19.7668 16.7493 20.6613C16.7493 21.4109 16.6195 22.1711 16.3588 22.9406C16.0981 23.7114 15.7961 24.382 15.4529 24.9548C15.1096 25.5276 14.8324 25.8752 14.6248 26.0002H19.0625C19.4576 25.2094 19.7702 24.3455 20.0003 23.4085C20.2291 22.4716 20.3435 21.5358 20.3435 20.5989C20.3435 18.7886 19.8481 17.2164 18.8596 15.8847ZM5.56303 21.9106C4.97913 21.9943 4.52144 21.8906 4.18761 21.5983C3.85378 21.3072 3.68746 20.9006 3.68746 20.3808C3.68746 19.8611 3.85968 19.3614 4.20294 18.8193C4.54621 18.2783 5.05698 17.8045 5.73408 17.3991C6.41117 16.9937 7.23926 16.7273 8.21833 16.6036C8.63473 16.5411 9.23869 16.4893 10.0302 16.448C9.4463 19.7574 7.95646 21.5794 5.56185 21.9118L5.56303 21.9106Z" fill="white"/>
<path d="M23.0013 7.41072H10.3135V0H23.0013L19.5439 3.70536L23.0013 7.41072Z" fill="#5669EF" fill-opacity="0.6"/>
</g>
<defs>
<clipPath id="clip0_440_2233">
<rect width="24" height="26" fill="white"/>
</clipPath>
</defs>
</svg>
